<?xml version="1.0" standalone="no"?>
<!DOCTYPE svg PUBLIC "-//W3C//DTD SVG 20010904//EN"
 "http://www.w3.org/TR/2001/REC-SVG-20010904/DTD/svg10.dtd">
<svg version="1.0" xmlns="http://www.w3.org/2000/svg"
 width="767.000000pt" height="384.000000pt" viewBox="0 0 767.000000 384.000000"
 preserveAspectRatio="xMidYMid meet">
<metadata>
Created by potrace 1.16, written by Peter Selinger 2001-2019
</metadata>
<g transform="translate(0.000000,384.000000) scale(0.100000,-0.100000)"
fill="#000000" stroke="none">
<path d="M1496 3819 c16 -18 16 -21 -10 -57 -70 -93 -198 -297 -250 -394 l-57
-107 -37 16 c-20 8 -71 31 -112 50 -129 61 -228 103 -240 103 -6 0 -8 5 -5 10
6 10 -5 13 -42 10 -12 0 -30 7 -40 17 -10 10 -27 18 -38 18 -12 0 -19 6 -17
14 4 19 -15 30 -40 23 -15 -4 -17 -7 -6 -13 30 -19 -14 -7 -77 21 -37 17 -71
27 -77 24 -5 -3 -17 1 -26 10 -20 17 -114 61 -152 70 -14 3 -7 -3 15 -13 25
-12 33 -20 21 -20 -12 -1 -16 -6 -13 -16 4 -8 1 -17 -4 -21 -13 -7 -48 -83
-49 -101 0 -7 7 -13 16 -13 14 0 14 3 4 15 -11 13 -10 14 4 9 14 -5 16 -2 11
19 -5 18 -2 28 12 36 10 6 15 11 10 11 -8 0 20 60 28 60 11 0 62 -25 77 -38
10 -8 28 -16 41 -17 12 -2 52 -16 87 -33 36 -17 137 -60 225 -95 88 -36 207
-86 265 -112 58 -26 115 -51 127 -55 21 -9 21 -10 -22 -107 -62 -143 -155
-410 -155 -447 0 -13 -4 -14 -25 -4 -13 6 -22 15 -19 19 3 5 -2 6 -11 3 -8 -4
-48 8 -88 24 -190 81 -267 111 -293 117 -41 8 -24 0 216 -99 l205 -84 -3 -34
c-6 -57 -29 -137 -46 -153 -21 -22 -21 -31 1 -14 9 8 14 9 10 2 -4 -6 -9 -29
-11 -50 -8 -76 -18 -133 -25 -133 -4 0 -6 -23 -3 -50 2 -32 0 -50 -7 -50 -6 0
-8 -7 -5 -15 4 -9 0 -15 -10 -15 -9 0 -16 -5 -16 -11 0 -5 4 -8 9 -4 5 3 12 1
15 -4 3 -5 -3 -11 -14 -14 -11 -3 -20 -1 -20 3 0 5 -3 15 -6 24 -4 11 0 16 12
17 12 0 14 3 6 6 -17 7 -44 -17 -38 -34 5 -12 -4 -16 -21 -10 -4 1 -6 10 -5
20 3 15 -1 17 -18 12 -13 -4 -20 -3 -17 2 3 5 -4 9 -16 9 -16 -1 -21 4 -19 17
4 21 -24 23 -32 1 -5 -13 -10 -11 -28 11 -23 25 -40 32 -106 42 -41 7 -45 14
-27 49 8 16 12 36 10 45 -3 10 1 19 10 23 19 7 20 26 1 26 -8 0 -18 -9 -21
-20 -3 -11 -10 -20 -15 -20 -9 0 -23 -39 -21 -57 1 -7 -5 -13 -12 -13 -8 0
-17 -9 -20 -20 -4 -14 -13 -20 -34 -20 -22 0 -25 2 -13 10 10 6 11 10 3 10 -7
0 -13 5 -13 11 0 5 4 7 10 4 5 -3 17 -2 26 3 13 7 6 11 -26 16 -24 4 -46 9
-51 11 -4 3 2 28 13 57 10 28 17 60 15 70 -5 16 4 23 25 19 12 -2 10 17 -2 24
-6 4 -7 11 -4 17 4 6 -3 5 -16 -2 -18 -9 -21 -9 -15 0 4 7 1 16 -6 21 -10 7
-7 9 11 6 14 -1 30 -5 35 -9 6 -3 25 -9 42 -13 25 -5 33 -3 33 8 0 8 -7 20
-15 27 -12 10 -15 10 -15 -4 0 -18 -13 -20 -40 -6 -11 6 -17 17 -14 24 6 17
-12 56 -26 56 -6 0 -10 -7 -10 -16 0 -8 5 -12 10 -9 6 3 10 1 10 -4 0 -6 -4
-11 -10 -11 -5 0 -6 -7 -3 -17 4 -10 2 -14 -4 -10 -7 4 -15 -5 -20 -20 l-10
-28 -12 23 c-13 25 -31 29 -31 7 0 -8 17 -26 37 -40 24 -16 31 -25 20 -25 -9
0 -18 -4 -18 -10 -4 -28 -26 -77 -39 -85 -6 -3 -1 17 10 46 11 29 19 54 17 55
-1 1 -12 7 -25 13 -25 13 -53 4 -31 -10 11 -7 11 -9 1 -9 -7 0 -10 -5 -7 -11
4 -6 -2 -13 -12 -15 -14 -4 -20 -15 -21 -34 -1 -29 16 -41 80 -56 16 -3 28
-10 28 -15 0 -11 -13 -12 -26 0 -5 4 -31 14 -58 21 -38 10 -51 11 -54 2 -5
-16 -23 -15 -20 1 2 7 -7 12 -22 12 -14 0 -30 6 -36 14 -6 8 -16 11 -22 7 -6
-3 -13 -2 -17 4 -3 5 -1 10 4 10 6 0 11 9 11 21 0 11 -4 18 -8 15 -5 -3 -9 1
-9 9 0 8 4 12 9 9 15 -10 30 7 18 21 -8 9 -7 14 5 18 14 6 11 37 -4 37 -8 0
-44 -68 -45 -85 -2 -19 -38 -85 -47 -85 -14 0 -11 -108 4 -113 9 -4 9 -6 0 -6
-9 -1 -13 -21 -12 -68 l0 -68 17 38 17 38 22 -27 c15 -18 27 -25 40 -20 15 5
15 4 -2 -9 -12 -9 -20 -28 -20 -44 0 -27 1 -28 20 -15 23 17 35 18 35 4 0 -5
-9 -10 -20 -10 -26 0 -26 -12 0 -28 11 -7 20 -22 19 -35 -1 -21 -1 -21 -9 3
-8 24 -8 24 -9 3 -2 -35 -2 -37 -13 -50 -7 -9 -7 -13 3 -14 41 -3 86 -9 101
-13 10 -2 21 0 24 5 3 6 12 5 21 -3 12 -10 18 -9 29 7 8 10 14 27 14 38 0 10
4 16 9 13 5 -4 7 2 4 13 -6 23 13 37 21 16 3 -8 12 -15 21 -15 19 0 20 -16 0
-24 -15 -5 -18 -56 -3 -56 4 0 8 5 8 10 0 6 7 10 16 10 12 0 14 -3 6 -13 -7
-8 -7 -18 -2 -27 6 -8 10 -13 11 -10 0 3 2 19 4 35 12 97 30 130 55 100 9 -11
10 -18 1 -29 -6 -7 -8 -21 -5 -30 5 -12 0 -19 -13 -22 -20 -6 -20 -6 1 -29 23
-26 40 -23 33 6 -3 11 -1 19 4 19 5 0 2 11 -7 25 -15 23 -15 25 0 31 9 3 14
10 11 15 -3 4 4 13 16 19 14 8 19 18 16 31 -8 30 8 31 37 2 14 -14 26 -21 26
-14 0 6 5 10 11 9 16 -4 20 32 6 47 -16 15 -57 26 -57 14 0 -12 -61 -11 -80 1
-11 7 -5 8 19 4 21 -5 36 -3 40 5 10 15 102 -5 114 -26 9 -15 37 -18 37 -3 0
17 28 11 39 -7 8 -15 13 -16 30 -5 14 8 21 8 21 1 0 -5 5 -7 11 -3 8 5 8 1 0
-14 -8 -16 -7 -21 5 -26 33 -13 52 -7 47 14 -3 11 -1 20 4 20 5 0 10 -11 11
-25 1 -21 -2 -25 -27 -25 -16 0 -31 -6 -35 -15 -3 -8 -11 -13 -18 -11 -7 1
-10 1 -6 -1 5 -3 3 -13 -2 -24 -7 -12 -7 -19 -1 -19 5 0 12 9 16 19 8 25 36
34 75 26 29 -6 44 9 18 17 -8 3 -7 11 4 27 11 16 18 19 23 11 4 -7 2 -16 -5
-20 -9 -6 -9 -13 -1 -28 16 -29 15 -30 -23 -29 -19 0 -33 5 -30 9 3 4 -4 8
-16 8 -11 0 -23 -7 -27 -15 -7 -19 5 -34 15 -18 10 15 52 -2 52 -22 0 -8 -4
-15 -10 -15 -5 0 -7 8 -5 18 3 9 -4 -1 -15 -23 -11 -22 -20 -48 -20 -58 0 -12
-4 -16 -12 -11 -9 5 -9 2 1 -9 12 -15 9 -20 -9 -19 -3 0 -6 -12 -6 -26 -1 -15
1 -21 3 -14 3 6 9 9 15 6 5 -3 16 2 24 12 14 18 14 18 4 -3 -6 -13 -15 -23
-20 -23 -5 0 -9 -10 -9 -22 1 -13 -2 -33 -4 -45 -6 -24 8 -33 16 -10 3 9 7 9
19 -1 13 -10 17 -9 23 10 l7 23 7 -25 c5 -17 3 -31 -7 -42 -17 -21 -14 -22 23
-8 17 7 24 7 20 0 -3 -6 -13 -10 -21 -10 -8 0 -14 -8 -14 -18 0 -10 -6 -24
-12 -30 -10 -10 -10 -15 2 -22 12 -7 12 -12 2 -22 -9 -9 -12 -9 -12 5 0 9 -8
17 -17 17 -10 0 -14 3 -8 8 6 4 10 22 11 40 0 19 8 38 20 48 18 14 18 15 -6 8
-24 -6 -42 -25 -40 -40 1 -4 -4 -10 -11 -15 -15 -9 -39 7 -39 25 0 6 4 5 9 -3
8 -12 12 -12 25 2 23 22 20 30 -9 25 -20 -4 -23 -3 -14 8 6 7 8 17 5 23 -3 5
0 12 6 14 8 3 6 6 -4 6 -22 1 -23 10 -2 26 15 11 15 12 -1 12 -9 0 -21 -12
-26 -25 -13 -35 -18 -102 -8 -102 5 0 9 -7 9 -15 0 -8 7 -15 15 -15 8 0 15 -5
15 -11 0 -8 5 -8 15 1 12 10 15 9 15 -4 0 -10 -4 -14 -10 -11 -5 3 -10 1 -10
-6 0 -7 -6 -4 -14 7 -17 23 -25 17 -31 -25 -3 -29 -2 -31 18 -25 21 7 21 6 3
-21 -15 -22 -16 -29 -5 -36 18 -11 27 6 24 42 -1 16 1 32 6 35 5 3 9 0 9 -5 0
-19 20 -12 21 7 1 11 4 8 8 -8 7 -23 -5 -44 -19 -35 -3 2 -6 -5 -6 -16 0 -10
4 -19 9 -19 5 0 4 -6 -2 -14 -7 -8 -21 -12 -32 -9 -15 4 -22 0 -26 -16 -3 -13
-11 -20 -19 -17 -8 3 -14 0 -14 -6 0 -6 -7 -20 -17 -30 -10 -12 -12 -18 -4
-18 7 0 10 -4 6 -9 -3 -5 5 -17 17 -27 15 -11 17 -14 6 -11 -10 4 -18 2 -18
-4 0 -6 -4 -7 -10 -4 -5 3 -10 2 -10 -4 0 -5 -8 -12 -17 -15 -10 -3 7 -2 37 1
30 3 63 9 72 14 9 5 24 6 34 2 10 -4 22 0 30 11 12 17 14 17 36 2 l22 -16 -26
0 c-20 0 -26 -4 -22 -15 4 -8 11 -12 17 -8 6 3 7 1 3 -5 -8 -14 -45 -11 -40 3
5 13 -43 19 -50 6 -3 -4 -17 -7 -31 -6 -17 2 -25 -2 -25 -12 0 -10 6 -13 17
-9 17 7 17 6 1 -10 -9 -9 -30 -17 -46 -16 -17 0 -37 -7 -46 -17 -14 -15 -13
-17 7 -16 12 0 23 -4 24 -10 1 -5 -5 -9 -13 -7 -8 2 -14 -4 -14 -12 0 -13 5
-13 41 -1 51 18 49 18 49 1 0 -8 -7 -17 -16 -20 -8 -3 -12 -2 -9 4 9 15 -8 12
-31 -4 -10 -8 -19 -20 -19 -28 0 -7 -10 -14 -23 -14 -12 -1 -26 -5 -30 -9 -4
-5 2 -5 13 -1 16 5 15 2 -5 -14 -15 -12 -18 -18 -7 -14 11 4 17 1 17 -7 1 -9
4 -8 11 4 6 9 15 14 21 11 7 -4 8 -2 4 5 -4 6 0 14 9 17 9 4 14 13 11 20 -3 7
-1 16 3 19 5 2 12 -6 15 -20 8 -30 22 -32 31 -5 8 24 25 27 25 4 0 -11 4 -14
13 -7 18 13 71 17 63 4 -4 -7 1 -11 13 -11 25 0 27 -15 5 -28 -13 -7 -14 -13
-5 -31 12 -22 7 -41 -11 -41 -6 0 -8 9 -5 20 5 18 4 18 -19 3 -13 -8 -22 -19
-19 -23 3 -4 -2 -10 -10 -14 -8 -3 -15 -10 -15 -16 0 -7 6 -8 19 -1 15 8 21 5
31 -17 8 -15 14 -29 14 -32 1 -3 5 -11 10 -19 5 -8 4 -16 -4 -21 -7 -4 -10
-12 -6 -18 3 -6 1 -14 -5 -18 -6 -3 -15 0 -20 7 -5 9 -3 17 6 22 8 4 15 13 15
19 0 7 -6 6 -15 -2 -13 -11 -14 -10 -9 4 4 11 -1 19 -17 25 -13 5 -18 10 -11
10 17 1 15 21 -3 21 -19 0 -16 -60 3 -75 14 -11 6 -48 -9 -39 -16 9 -10 -5 11
-26 27 -27 25 -50 -2 -51 -17 -1 -19 -2 -5 -6 20 -5 22 -19 5 -29 -6 -4 -16 0
-22 8 -6 8 -18 17 -26 21 -11 4 -10 6 4 6 11 1 16 4 13 8 -4 3 1 15 10 26 10
11 12 17 5 13 -8 -5 -18 -1 -26 10 -8 11 -20 15 -30 11 -10 -4 -15 -3 -11 3 3
6 15 10 27 10 16 0 18 3 9 13 -8 10 -7 17 2 27 8 9 9 11 0 6 -22 -12 -23 13
-1 28 25 18 19 32 -9 17 -10 -5 -27 -13 -38 -16 -20 -7 -20 -7 0 -15 19 -7 19
-7 -2 -18 -12 -7 -31 -12 -43 -12 -18 0 -21 -4 -16 -23 3 -13 1 -38 -4 -56 -5
-17 -5 -29 -1 -27 4 3 15 -3 23 -13 15 -17 14 -20 -1 -36 -9 -10 -10 -15 -3
-11 17 10 15 -10 -4 -28 -14 -15 -18 -14 -38 16 -15 22 -19 35 -12 40 8 6 8 8
0 8 -18 0 -24 -13 -13 -27 9 -10 7 -13 -6 -13 -13 0 -16 -6 -11 -24 8 -31 -22
-45 -42 -19 -16 22 -82 24 -99 3 -7 -9 -12 -10 -13 -4 0 18 26 35 44 28 9 -3
16 -1 16 5 0 6 -6 11 -13 11 -19 0 -17 30 2 30 15 1 15 2 0 13 -9 7 -13 19
-10 29 5 15 8 15 25 2 11 -8 14 -14 7 -14 -9 0 -8 -5 3 -16 9 -8 16 -19 16
-23 0 -4 9 -7 20 -8 18 -2 19 0 5 13 -17 18 -20 54 -4 54 6 0 9 8 7 18 -4 13
1 18 16 20 16 1 18 -1 6 -8 -22 -14 -3 -25 22 -12 13 6 18 11 11 11 -7 1 -10
8 -7 16 5 12 0 15 -25 13 -30 -2 -47 -21 -35 -39 3 -5 -2 -9 -10 -9 -14 0 -33
35 -28 53 1 4 -3 7 -9 7 -6 0 -13 -9 -16 -20 -3 -11 -13 -20 -23 -20 -15 0
-17 -5 -10 -36 7 -28 5 -34 -5 -30 -8 3 -16 0 -19 -7 -3 -9 -8 -8 -15 3 -8 12
-11 12 -11 1 0 -11 -3 -11 -15 -1 -12 10 -14 7 -13 -24 1 -29 6 -37 27 -44
l26 -9 -28 -6 c-15 -4 -27 -14 -27 -23 0 -8 -4 -13 -10 -9 -5 3 -7 12 -3 20 3
8 0 15 -6 15 -7 0 -14 -6 -17 -14 -3 -8 -13 -13 -22 -11 -9 1 -12 0 -5 -2 16
-6 21 -102 6 -122 -8 -10 -12 -12 -13 -3 0 16 -30 15 -54 -3 -10 -8 -22 -12
-27 -10 -12 8 -61 -14 -54 -25 3 -5 -1 -10 -9 -10 -9 0 -16 -5 -16 -12 0 -6
-9 -3 -20 7 -11 10 -20 13 -20 7 0 -6 -9 -14 -20 -17 -16 -5 -20 -15 -20 -51
0 -24 5 -44 10 -44 6 0 10 -5 10 -11 0 -5 -4 -7 -10 -4 -5 3 -10 -1 -10 -9 0
-9 9 -16 20 -16 11 0 20 4 20 9 0 4 12 6 28 4 l27 -4 -30 14 -30 14 30 5 c16
4 33 2 36 -4 3 -5 9 -9 13 -9 20 3 23 -2 18 -26 -4 -27 -4 -27 12 -8 15 20 15
20 16 -3 0 -30 15 -20 29 19 10 29 9 31 -11 26 -35 -10 -6 10 37 23 22 7 46
19 53 27 16 16 32 17 32 2 0 -6 9 -8 23 -4 15 4 18 4 8 -3 -7 -5 -10 -15 -7
-21 4 -6 3 -11 -3 -11 -6 0 -8 -7 -5 -15 6 -14 8 -14 18 1 10 13 11 9 8 -22
-4 -34 -3 -37 11 -26 13 11 16 10 20 -10 4 -21 4 -22 6 -2 0 12 8 27 16 34 13
11 14 10 9 -3 -4 -12 1 -16 25 -15 22 1 31 6 33 22 3 19 4 19 18 5 10 -11 22
-14 35 -9 23 9 29 10 50 10 8 0 15 7 15 16 0 10 -6 14 -15 10 -10 -4 -15 1
-15 14 0 11 5 20 10 20 6 0 10 -4 10 -10 0 -5 4 -10 10 -10 5 0 8 14 6 30 -2
20 1 29 8 27 6 -3 10 -10 8 -17 -2 -8 3 -10 13 -6 9 3 13 2 10 -4 -3 -6 -1
-10 6 -10 7 0 5 -8 -7 -22 -17 -19 -17 -21 -2 -15 15 5 17 1 14 -23 -3 -27 -2
-28 18 -18 11 6 23 11 26 10 3 -1 5 6 5 16 -1 9 -6 16 -13 15 -7 -2 -12 2 -12
7 0 6 14 13 31 17 20 4 28 10 25 20 -4 8 -1 11 5 8 6 -4 8 -13 5 -20 -2 -7 2
-22 10 -34 8 -11 11 -21 6 -21 -6 0 -12 -6 -15 -14 -4 -10 0 -12 14 -9 15 4
18 2 13 -12 -5 -12 -1 -23 12 -32 10 -8 19 -19 19 -26 0 -7 7 -12 15 -12 16 0
17 14 5 78 -6 30 -5 37 9 37 19 0 21 -16 4 -26 -7 -5 -4 -10 11 -16 13 -4 19
-13 15 -19 -4 -8 -9 -7 -15 2 -7 11 -9 10 -9 -5 0 -13 5 -17 20 -13 11 3 18 1
14 -4 -3 -5 5 -9 17 -9 21 0 22 -1 5 -13 -16 -12 -17 -16 -5 -35 8 -12 17 -22
22 -22 4 0 5 -5 2 -10 -4 -6 -11 -8 -16 -5 -5 4 -9 1 -9 -4 0 -6 -5 -11 -12
-11 -6 0 -8 3 -5 7 11 10 -24 43 -45 43 -22 0 -23 2 17 -78 17 -34 36 -64 43
-66 8 -4 10 -1 6 6 -5 7 -3 8 5 4 7 -5 10 -14 7 -22 -8 -20 28 -18 45 3 13 15
12 16 -8 11 -13 -4 -23 -2 -23 2 0 5 -3 16 -7 25 -5 14 -2 16 15 11 24 -8 36
7 27 35 -5 15 -10 17 -20 9 -9 -8 -15 -8 -20 0 -3 5 1 10 9 10 18 0 41 37 26
42 -6 2 -12 13 -15 26 -5 28 16 29 41 1 15 -16 16 -22 5 -29 -8 -4 -11 -15 -8
-24 4 -9 2 -16 -3 -16 -12 0 -1 -60 14 -80 7 -8 12 -27 11 -41 -1 -24 2 -26
40 -27 27 0 47 7 63 21 16 15 21 17 17 6 -5 -12 2 -18 26 -23 53 -10 83 -8 71
7 -7 8 -6 16 4 25 12 11 14 9 14 -13 l0 -25 591 0 c576 0 591 1 616 20 32 25
43 25 43 0 0 -19 7 -20 211 -20 l210 0 -20 29 c-12 16 -21 38 -21 48 0 10 -8
35 -18 54 -16 32 -20 35 -47 27 -17 -5 -40 -6 -52 -3 -33 8 -28 -6 17 -49 22
-21 40 -46 40 -57 0 -23 -16 -25 -28 -3 -16 28 -94 104 -108 104 -22 0 -64 22
-58 31 3 5 1 9 -5 9 -5 0 -11 -5 -13 -12 -4 -12 -101 39 -181 94 -16 11 -31
17 -34 14 -4 -3 -1 -6 5 -6 7 0 12 -7 12 -15 0 -23 -31 -18 -37 5 -7 26 -53
51 -82 43 -11 -3 -28 0 -36 7 -22 18 -31 4 -12 -18 10 -10 17 -26 17 -35 0 -9
5 -17 10 -17 6 0 10 6 8 14 -3 16 4 19 27 10 24 -10 18 -33 -7 -26 -16 4 -20
2 -16 -10 5 -13 2 -14 -18 -4 -14 6 -27 21 -30 34 -4 12 -10 22 -15 22 -12 0
-11 -14 2 -27 8 -8 7 -13 -2 -18 -7 -5 -10 -4 -6 2 9 15 -10 27 -73 47 -70 23
-79 31 -75 66 2 16 -1 33 -7 36 -7 5 -9 1 -5 -9 8 -23 6 -22 -55 14 -29 17
-63 31 -75 31 -13 0 -23 4 -23 9 0 5 -5 9 -11 9 -6 0 -31 14 -57 32 -26 18
-47 30 -48 28 0 -7 -115 117 -134 144 -8 13 -27 36 -42 52 -16 16 -28 36 -28
44 0 25 -26 65 -40 62 -18 -4 -109 89 -103 105 3 7 -2 16 -11 19 -9 4 -21 16
-27 28 -6 11 12 -3 39 -31 28 -29 58 -53 68 -53 13 0 0 18 -44 59 -34 33 -62
67 -62 75 0 9 -6 16 -13 16 -8 0 -22 9 -33 21 -10 11 -28 26 -39 32 -17 9 -18
8 -7 -5 11 -14 9 -15 -18 -13 -32 2 -54 14 -29 16 10 0 10 2 -2 7 -19 8 -80
85 -103 131 -9 17 -16 41 -16 53 0 48 8 324 9 336 0 7 6 10 11 7 6 -4 13 7 16
24 4 17 12 31 19 31 8 0 34 9 58 19 l45 20 -5 63 c-3 37 -11 68 -20 74 -9 8
-12 25 -9 50 3 33 15 49 77 106 41 37 79 66 86 63 6 -2 17 2 23 10 13 15 4 38
-36 90 -13 17 -37 61 -55 98 -30 66 -31 68 -14 94 10 15 18 38 19 52 1 20 6
26 21 24 22 -2 85 33 85 48 0 5 -9 14 -20 21 -11 7 -20 18 -20 25 0 18 -14 16
-40 -7 -13 -11 -27 -20 -32 -20 -16 0 -8 19 15 35 12 8 21 18 20 20 -7 14 -1
24 18 30 24 8 23 26 -5 160 -14 67 -14 71 6 98 15 21 17 32 9 40 -18 18 -13
24 32 36 30 9 50 9 70 2 29 -11 38 4 15 27 -9 9 -6 17 12 37 21 22 62 45 252
142 25 13 59 41 74 61 16 20 43 52 61 70 31 31 44 72 23 72 -5 0 -10 -9 -10
-19 0 -40 -78 -35 -139 8 -22 16 -33 35 -42 76 -11 49 -10 59 7 96 34 76 71
119 102 119 32 0 180 -69 201 -93 24 -30 69 -21 107 21 56 62 38 77 -39 32
-47 -28 -101 -23 -157 14 -48 31 -60 74 -36 131 9 20 16 47 16 60 0 22 22 48
50 58 8 3 -74 6 -182 6 l-198 1 -47 -65 c-27 -35 -52 -64 -56 -65 -5 0 7 20
25 45 66 91 66 83 8 83 -51 1 -52 0 -34 -19z m-578 -2561 c-2 -7 -7 -16 -13
-20 -6 -4 -2 -8 8 -8 13 0 17 -8 17 -34 0 -19 -4 -38 -10 -41 -5 -3 -10 -13
-10 -21 0 -10 9 -5 25 13 13 15 25 23 25 17 0 -6 -7 -17 -15 -24 -19 -16 -20
-31 -1 -24 9 3 18 -7 27 -28 16 -42 14 -64 -11 -113 -17 -33 -18 -41 -6 -45
12 -4 12 -7 0 -18 -11 -10 -14 -10 -14 0 0 10 -3 9 -9 -1 -7 -11 -10 -5 -13
20 -2 26 2 38 20 53 13 10 21 21 18 24 -3 3 -15 -3 -26 -13 -18 -16 -20 -16
-20 -2 0 9 11 19 25 23 14 3 25 13 25 21 0 8 -4 11 -10 8 -5 -3 -10 -2 -10 4
0 5 4 12 9 15 18 11 0 43 -22 40 -12 -1 -25 -3 -29 -3 -12 -1 -9 -31 2 -31 6
0 10 -11 10 -25 0 -14 -5 -25 -11 -25 -6 0 -8 -7 -5 -15 3 -9 -1 -18 -9 -21
-8 -4 -15 -11 -15 -16 0 -6 8 -7 18 -3 11 4 13 3 7 -3 -5 -5 -22 -12 -36 -16
-23 -5 -26 -3 -22 18 3 14 14 34 25 45 10 12 16 26 12 33 -4 7 -3 8 4 4 7 -4
12 -3 12 3 0 5 -5 13 -11 16 -5 4 -8 12 -6 18 2 7 0 20 -4 29 -7 12 -4 20 7
26 12 6 16 23 16 62 -1 30 1 57 4 62 8 13 24 9 22 -4z"/>
<path d="M3714 3818 c-16 -12 -30 -23 -32 -24 -2 -1 -4 -9 -6 -17 -1 -8 -8
-22 -15 -30 -10 -13 -9 -15 8 -10 21 5 54 -13 47 -26 -7 -11 12 -36 21 -28 4
5 0 22 -9 38 -9 16 -13 29 -7 29 6 0 7 5 4 10 -3 6 -1 10 4 10 6 0 11 -6 11
-13 0 -8 7 -27 15 -44 8 -17 18 -59 21 -94 9 -88 20 -115 39 -99 8 7 15 19 15
26 0 8 7 14 15 14 20 0 36 32 25 50 -12 19 16 50 45 50 23 0 80 -38 71 -47 -3
-3 1 -12 9 -20 8 -8 15 -23 15 -34 0 -10 5 -19 10 -19 6 0 10 -7 10 -16 0 -10
6 -14 15 -11 8 4 17 2 20 -4 4 -5 10 -7 15 -4 5 3 16 -5 24 -17 18 -25 31 -19
21 11 -4 13 -11 18 -22 14 -13 -5 -15 0 -11 25 2 18 1 32 -4 32 -4 0 -8 -8 -9
-17 0 -14 -3 -13 -12 5 -8 18 -8 25 2 32 10 6 10 9 1 12 -9 3 -8 8 4 17 14 12
16 10 16 -15 1 -28 1 -28 13 -8 7 12 18 19 25 17 9 -4 11 2 7 20 -5 17 -2 26
10 30 18 8 40 -37 30 -62 -4 -11 0 -9 16 5 l21 19 -6 -44 c-3 -24 -3 -41 1
-38 9 10 43 -50 43 -76 0 -17 -11 -29 -47 -46 -33 -16 -48 -19 -53 -11 -5 8
-9 7 -13 -4 -4 -9 -6 -19 -6 -22 1 -3 -11 -19 -27 -35 -23 -24 -25 -31 -14
-44 8 -10 23 -15 36 -12 15 2 21 0 17 -9 -2 -6 0 -15 6 -19 7 -4 11 4 11 19 0
13 -5 26 -11 28 -7 2 0 12 15 21 15 10 35 15 46 12 19 -6 19 -6 -1 -26 -10
-10 -19 -24 -19 -30 0 -5 -5 -7 -10 -4 -7 4 -9 -2 -4 -19 5 -22 3 -26 -14 -26
-11 0 -23 -6 -25 -12 -7 -17 -29 12 -22 30 2 6 1 12 -3 12 -16 -1 -49 -37 -62
-70 -7 -19 -15 -37 -17 -39 -7 -9 -63 54 -63 71 0 11 -15 24 -40 36 -22 10
-38 21 -34 24 3 4 -3 4 -15 1 -12 -3 -21 -1 -21 6 0 21 -28 11 -49 -16 -11
-16 -21 -22 -21 -15 0 6 -7 12 -15 12 -8 0 -15 5 -15 10 0 6 5 10 11 10 5 0 3
10 -5 22 -9 12 -16 32 -15 43 1 16 2 16 8 -5 4 -15 15 -26 29 -28 24 -4 29 12
12 38 -8 13 -10 12 -10 -4 0 -11 -3 -17 -6 -13 -10 10 7 47 22 47 21 0 17 16
-8 32 -32 20 -57 13 -50 -15 5 -19 3 -20 -11 -9 -9 8 -13 20 -10 28 3 8 -1 14
-11 14 -15 0 -25 -16 -40 -64 -8 -25 -32 -5 -41 35 -7 31 -15 35 -32 18 -7 -7
-12 -3 -17 15 -3 14 -10 26 -15 26 -5 0 -28 18 -50 40 -23 23 -41 37 -41 32 0
-13 -53 -22 -64 -11 -6 5 -18 9 -28 9 -24 0 -24 37 0 43 13 4 12 5 -5 6 -12 0
-29 -9 -37 -21 -16 -23 -12 -43 6 -32 8 5 9 1 4 -11 -5 -14 -4 -16 8 -6 23 20
41 3 42 -39 0 -21 -4 -37 -9 -33 -5 3 -2 -9 7 -25 18 -36 38 -51 44 -34 2 7
12 12 22 12 13 0 17 -5 13 -20 -3 -11 -10 -20 -15 -20 -20 0 -67 31 -71 47 -3
11 -5 8 -6 -9 0 -16 -6 -28 -11 -28 -7 0 -9 18 -5 48 7 53 -8 88 -25 62 -5 -8
-11 -19 -14 -25 -2 -5 -10 -2 -18 9 -14 18 -16 18 -41 1 l-27 -17 23 -24 c12
-13 32 -24 45 -24 17 0 22 -6 22 -25 0 -28 -8 -30 -45 -13 -22 10 -28 9 -35
-2 -5 -8 -12 -12 -15 -8 -4 3 -20 2 -36 -2 -25 -7 -29 -6 -29 10 0 10 4 21 10
25 5 3 7 12 4 19 -4 10 2 12 20 9 33 -7 35 15 4 44 -16 15 -46 25 -99 32 -42
6 -89 16 -105 23 -16 6 -40 12 -54 12 -16 1 -25 7 -25 17 0 9 -5 27 -11 40 -7
13 -16 36 -22 50 -8 22 -19 28 -57 33 -39 6 -49 4 -62 -11 -13 -16 -14 -16 -9
0 3 9 1 17 -4 17 -6 0 -10 -4 -10 -10 0 -5 -7 -10 -15 -10 -20 0 -19 -12 5
-37 14 -15 16 -23 7 -27 -7 -3 -3 -4 8 -1 15 4 37 -10 80 -50 32 -30 63 -55
70 -55 6 0 16 -10 22 -23 9 -19 8 -23 -7 -24 -10 -1 -20 7 -23 18 -3 10 -11
19 -17 19 -10 0 -10 -3 0 -15 6 -8 9 -18 6 -23 -3 -5 3 -21 14 -35 14 -17 21
-42 21 -75 2 -56 19 -69 65 -52 23 9 34 30 15 30 -5 0 -4 11 2 24 8 15 19 23
34 22 13 0 23 -4 23 -7 0 -4 23 -9 50 -13 49 -7 125 -48 125 -68 0 -5 -45 -35
-100 -65 -190 -106 -236 -143 -175 -143 10 0 57 -20 105 -44 84 -42 88 -43
117 -29 20 10 48 14 84 11 89 -8 120 -55 67 -104 l-26 -24 24 -28 c13 -15 25
-29 26 -31 2 -2 8 1 16 7 13 11 40 1 37 -14 -1 -5 -6 -17 -11 -26 -6 -12 -3
-31 10 -60 18 -40 30 -71 31 -83 0 -3 9 -21 20 -41 11 -19 18 -39 16 -43 -3
-4 10 -5 29 -3 18 2 36 -1 39 -7 7 -10 -12 -16 -41 -12 -16 2 -16 -7 -2 -50
15 -44 16 -44 35 -28 14 11 18 11 30 -6 10 -14 11 -22 2 -32 -9 -11 -14 -11
-28 2 -24 22 -26 19 -22 -20 3 -21 10 -35 18 -35 7 0 29 -14 49 -31 l35 -31 1
33 c2 42 0 67 -7 97 -3 15 0 22 11 22 13 0 20 -19 16 -44 -1 -5 3 -13 10 -17
16 -10 25 -127 11 -141 -13 -13 -1 -41 33 -75 l22 -23 27 25 c14 13 26 31 26
40 0 22 10 19 42 -12 24 -23 31 -25 38 -13 5 8 6 18 3 24 -3 5 2 15 11 22 13
9 15 17 8 31 -12 22 2 63 21 63 7 0 18 -5 25 -12 10 -10 16 -8 29 5 14 13 15
21 5 42 -13 28 -7 50 9 39 6 -3 13 3 16 15 3 11 9 18 14 15 12 -7 11 -71 -1
-79 -6 -4 -8 -10 -5 -15 3 -5 21 -2 40 7 43 21 60 9 50 -35 -4 -22 -15 -33
-42 -43 l-35 -14 22 -27 c30 -39 56 -36 75 8 8 20 15 44 15 54 0 24 36 54 56
46 14 -5 16 -16 11 -65 l-6 -59 31 -6 c39 -8 40 -6 23 27 -20 38 -30 97 -17
97 6 0 13 -6 15 -12 3 -7 3 2 0 20 -6 36 19 75 42 66 8 -4 16 6 20 25 8 35 12
37 43 15 21 -14 82 -130 82 -154 0 -20 20 -9 26 15 3 13 21 36 39 50 33 25 85
34 85 15 0 -5 7 -10 16 -10 10 0 14 -6 10 -15 -7 -19 3 -19 28 0 11 8 27 13
36 10 19 -6 70 14 114 44 l28 19 -23 8 c-40 13 -88 8 -110 -12 -20 -18 -21
-18 -34 -1 -8 12 -10 28 -5 50 19 77 33 86 56 31 8 -20 17 -34 20 -31 3 2 -1
16 -7 30 -16 36 2 58 45 52 17 -2 34 -4 38 -4 3 -1 9 -14 13 -30 5 -22 14 -31
34 -36 16 -3 32 -5 37 -4 27 5 46 -5 70 -36 22 -29 24 -38 14 -50 -16 -19 -7
-28 39 -44 45 -15 88 -14 94 2 6 18 37 -10 37 -34 0 -11 11 -24 25 -31 19 -8
22 -15 15 -28 -7 -13 -4 -25 11 -44 22 -28 45 -35 35 -11 -8 22 12 18 24 -5 6
-11 15 -18 20 -15 6 4 8 -9 5 -32 -6 -54 10 -71 71 -71 57 0 124 -29 148 -64
9 -12 16 -42 16 -66 l0 -44 35 31 c57 50 84 39 81 -32 -2 -40 0 -46 10 -32 9
12 21 15 47 10 45 -9 52 5 30 52 -10 21 -30 72 -43 113 -14 41 -36 85 -49 97
-31 30 -81 31 -88 3 -4 -15 -14 -20 -39 -20 -22 0 -34 5 -34 14 0 19 -128 48
-153 34 -16 -8 -18 -6 -13 24 3 18 8 54 11 81 5 37 10 47 25 47 10 0 22 5 25
10 4 6 11 8 16 4 5 -3 15 -1 22 4 16 13 91 -1 158 -29 41 -18 55 -20 70 -11
16 10 19 9 19 -7 0 -31 11 -51 29 -51 35 0 89 -21 96 -38 11 -27 14 -102 4
-102 -5 0 -10 -10 -10 -22 -1 -20 -2 -20 -6 -4 -4 15 -9 11 -23 -20 -25 -57
-5 -74 39 -33 19 18 25 19 32 8 5 -8 6 -21 3 -29 -7 -21 2 -9 74 92 34 47 62
90 62 95 1 13 72 88 82 85 5 -1 2 8 -6 20 -20 28 -20 38 -1 38 15 0 55 -38 55
-52 0 -4 -8 -8 -17 -8 -26 0 28 -43 102 -81 33 -17 104 -56 158 -87 106 -61
102 -55 79 -129 -6 -20 -7 -33 -1 -33 5 0 9 -8 9 -17 0 -10 4 -24 9 -31 6 -10
14 1 26 36 l18 50 103 22 c92 19 105 20 131 7 52 -28 141 -127 129 -145 -3 -6
4 -13 17 -17 19 -7 17 -9 -16 -12 -40 -4 -48 -28 -10 -28 30 0 38 -12 15 -19
-16 -5 -20 -14 -18 -39 3 -40 -18 -66 -33 -39 -9 16 -10 16 -17 -2 -4 -11 -2
-21 7 -27 9 -6 10 -9 2 -9 -6 0 -15 5 -18 10 -8 13 -25 3 -25 -15 0 -7 7 -21
16 -29 8 -9 13 -19 10 -24 -2 -4 4 -9 15 -9 16 -2 19 5 19 38 0 38 19 57 21
22 1 -10 2 -27 3 -38 0 -11 -3 -23 -8 -27 -6 -4 -4 -14 5 -24 13 -16 12 -16
-7 -4 -25 15 -54 7 -54 -15 0 -10 10 -15 28 -16 15 0 21 -3 15 -6 -10 -3 -10
-11 1 -32 8 -15 11 -32 8 -38 -10 -16 -84 -34 -139 -32 -26 1 -67 -3 -90 -9
-45 -10 -52 -6 -30 18 17 20 -62 -50 -85 -75 -31 -34 -39 -53 -26 -61 7 -5 8
-3 3 6 -5 8 -2 11 11 7 11 -3 36 -8 57 -12 21 -3 65 -18 98 -32 47 -20 59 -30
59 -48 0 -12 -6 -28 -14 -34 -8 -7 -15 -20 -15 -29 0 -9 -4 -37 -10 -62 -8
-36 -6 -50 6 -68 8 -13 13 -25 11 -26 -2 -1 -12 -8 -23 -16 -20 -14 -20 -14
-2 7 18 21 18 21 -2 28 -12 3 -21 15 -21 25 0 13 -5 17 -14 14 -8 -3 -19 3
-25 15 -13 23 -74 43 -107 35 -12 -3 -25 -1 -28 5 -9 13 -46 15 -46 2 0 -5 21
-24 48 -42 26 -17 74 -51 107 -74 33 -23 65 -41 70 -39 6 2 17 -12 26 -30 14
-31 14 -34 -1 -44 -13 -8 -22 -50 -40 -178 -12 -93 -22 -187 -22 -209 1 -50
-16 -85 -40 -85 -10 0 -38 18 -62 40 -24 22 -47 40 -52 40 -5 0 -22 -23 -37
-51 -21 -38 -31 -48 -41 -40 -6 6 -34 10 -62 11 -27 0 -65 0 -86 0 -31 1 -46
10 -100 62 -34 33 -74 65 -88 70 -14 5 -33 19 -42 32 -17 23 -16 26 23 91 22
37 38 69 35 72 -3 3 -17 -2 -30 -11 -34 -22 -39 -21 -89 15 -25 17 -56 32 -70
32 -14 1 -23 5 -21 8 4 8 -32 19 -62 19 -12 0 -44 15 -71 33 -49 33 -49 33
-45 9 3 -13 15 -28 28 -34 29 -14 30 -24 4 -40 -26 -16 -26 -32 -1 -18 32 16
37 12 33 -25 -3 -21 -10 -35 -18 -35 -17 0 -18 17 -1 23 7 3 5 6 -5 6 -22 1
-58 40 -58 63 0 10 -6 18 -13 18 -22 0 -97 58 -97 75 0 8 -16 21 -36 30 -30
12 -34 17 -25 34 6 10 25 31 42 45 l32 27 26 -25 c15 -15 37 -26 48 -26 17 0
23 8 28 41 5 29 3 44 -6 49 -7 5 -67 6 -133 3 -109 -4 -123 -7 -138 -26 -10
-12 -18 -31 -18 -43 0 -28 -9 -35 -30 -24 -13 7 -29 5 -53 -5 -27 -11 -36 -12
-40 -2 -3 9 -8 9 -21 -2 -14 -12 -21 -12 -42 0 -32 17 -46 43 -48 88 -1 33 -6
38 -34 33 -4 -1 -7 -40 -7 -86 l0 -84 46 -16 c55 -20 90 -55 93 -90 1 -29 11
-34 23 -12 6 11 11 12 24 3 20 -15 35 -57 20 -57 -6 0 -11 -7 -11 -15 0 -8 5
-15 11 -15 5 0 7 -5 3 -11 -4 -8 -26 -9 -65 -5 -39 5 -59 3 -59 -4 0 -5 7 -10
15 -10 9 0 20 -10 25 -22 5 -13 9 -17 9 -10 1 7 14 12 34 12 32 -1 32 -1 9
-14 l-24 -13 36 -17 c20 -9 45 -14 56 -11 15 5 18 3 14 -9 -3 -9 -1 -16 5 -16
6 0 29 -11 51 -25 22 -14 54 -25 72 -25 18 0 51 -12 73 -25 47 -29 70 -31 85
-7 8 14 10 11 8 -17 -4 -45 -51 -75 -97 -61 -30 8 -44 -2 -18 -14 6 -3 2 -3
-10 0 -13 3 -23 1 -23 -5 0 -6 -5 -11 -12 -11 -9 0 -9 3 0 12 18 18 15 23 -18
23 -33 0 -40 -11 -12 -18 13 -4 11 -5 -5 -6 -13 0 -23 4 -23 10 0 7 -12 9 -35
5 -31 -6 -36 -4 -50 24 -8 16 -20 30 -26 30 -6 0 -7 5 -4 10 3 6 1 10 -5 10
-6 0 -8 -10 -4 -26 6 -22 4 -25 -12 -22 -10 2 -23 13 -29 24 -8 17 -18 20 -48
19 -20 -2 -38 1 -38 6 -1 5 -2 15 -3 22 -1 6 -12 12 -26 12 -19 0 -26 6 -28
25 -5 43 -12 56 -21 41 -14 -22 -54 73 -49 115 4 30 0 38 -18 46 -22 10 -22
12 -7 43 10 20 13 41 8 52 -6 15 -11 11 -27 -24 -19 -43 -53 -63 -79 -47 -7 4
-10 3 -6 -3 7 -10 -100 -83 -123 -83 -11 0 -11 3 -2 12 7 7 12 24 12 39 0 15
5 31 10 34 6 4 8 10 5 15 -3 4 2 13 10 20 22 18 18 40 -6 40 -18 0 -20 -4 -15
-25 5 -18 2 -25 -9 -25 -8 0 -15 -5 -15 -11 0 -6 -9 -8 -20 -4 -12 4 -20 2
-20 -5 0 -7 9 -14 20 -17 14 -4 18 -12 16 -27 -3 -11 -5 -24 -5 -28 -1 -5 -19
-8 -41 -8 -31 0 -38 3 -34 15 4 10 -4 19 -22 26 l-29 12 25 6 c23 7 24 8 6 18
-12 7 -15 13 -7 17 21 13 11 26 -19 26 -25 0 -30 -4 -30 -24 0 -30 -14 -40
-32 -23 -7 7 -19 12 -25 11 -7 -1 -17 -2 -23 -3 -16 -2 -12 -21 5 -21 18 0 20
-16 4 -26 -6 -3 -15 -1 -19 6 -5 8 -9 4 -13 -12 -10 -35 -8 -42 6 -30 18 15
43 -15 39 -45 -4 -27 14 -63 32 -63 8 0 24 -19 36 -41 35 -69 70 -109 94 -108
11 0 15 3 9 6 -18 7 -16 23 2 23 8 0 28 18 43 40 28 41 42 50 42 26 0 -9 7
-12 19 -9 22 6 64 -14 56 -26 -2 -5 -25 -12 -50 -15 -37 -6 -45 -11 -45 -28 0
-11 8 -27 18 -35 15 -12 14 -13 -9 -7 -37 8 -46 -12 -17 -37 l23 -20 -29 6
c-22 5 -32 1 -43 -15 -9 -13 -21 -19 -31 -15 -8 3 -19 0 -24 -7 -6 -10 -10
-10 -19 2 -8 12 -9 9 -3 -10 3 -14 15 -37 25 -52 11 -14 19 -31 19 -37 0 -6 5
-11 11 -11 6 0 9 7 5 15 -3 8 -2 15 3 15 5 0 11 -13 13 -30 3 -22 1 -27 -8
-20 -16 14 -25 -32 -10 -57 13 -23 8 -86 -7 -95 -21 -14 -26 -8 -33 40 -4 26
-10 39 -12 29 -3 -13 -9 -16 -25 -11 -32 9 -34 14 -15 28 15 11 15 18 3 71
-17 72 -42 107 -84 119 -37 11 -36 11 -44 -32 -5 -23 -3 -31 5 -26 7 4 8 3 4
-5 -4 -6 -16 -9 -27 -6 -12 4 -21 1 -25 -9 -3 -9 -17 -16 -30 -16 -18 0 -22 4
-17 17 5 13 2 15 -14 11 -12 -3 -27 -2 -34 3 -11 7 -9 9 6 10 11 1 24 1 29 0
4 -1 14 3 21 9 9 8 15 8 20 0 10 -17 33 -11 31 8 -2 12 -15 19 -44 23 -23 3
-45 8 -48 12 -4 4 -13 2 -21 -4 -9 -9 -13 -8 -13 0 0 6 -6 11 -13 11 -7 0 -30
9 -52 20 -22 11 -42 20 -46 20 -3 0 -9 -18 -13 -40 -8 -50 -28 -59 -105 -48
-31 4 -79 5 -106 2 -43 -5 -53 -3 -69 15 -19 21 -19 22 1 49 24 32 82 42 118
18 27 -18 35 -12 35 25 0 26 -2 28 -24 19 -13 -5 -32 -7 -42 -5 -73 15 -74 15
-74 41 0 57 78 93 128 58 12 -8 22 -13 22 -11 0 3 5 51 11 108 8 84 15 109 32
127 20 22 134 82 154 82 14 0 56 48 108 124 44 65 46 73 41 117 -4 28 -2 50 4
54 6 3 10 26 10 50 0 38 5 50 35 77 25 24 32 37 26 47 -14 21 -44 6 -36 -19 3
-11 4 -24 0 -29 -10 -17 -32 -1 -38 27 -4 17 -21 37 -44 52 -21 13 -59 41 -84
62 -26 21 -54 38 -64 38 -17 0 -74 35 -86 53 -4 5 -3 23 1 38 7 24 5 31 -11
39 -11 7 -19 21 -19 37 0 26 -1 27 -17 10 -17 -17 -17 -19 0 -31 9 -7 17 -17
17 -22 0 -11 -68 -34 -72 -25 -2 3 -17 19 -34 34 -38 34 -100 52 -108 31 -3
-7 -16 -16 -30 -20 -22 -5 -24 -9 -15 -26 15 -27 4 -48 -25 -48 -17 0 -26 -6
-28 -21 -2 -11 -16 -28 -33 -37 -16 -9 -32 -20 -35 -24 -3 -3 -17 -4 -32 -1
-31 6 -42 35 -22 60 17 23 17 33 0 33 -8 0 -17 14 -21 30 -5 25 -2 35 17 53
22 21 71 48 112 61 17 6 15 10 -18 42 -38 37 -43 57 -23 96 11 21 16 23 46 16
29 -8 32 -13 28 -34 -3 -19 1 -27 15 -33 11 -4 19 -10 19 -14 -1 -4 -1 -19 -1
-34 0 -21 3 -24 12 -15 7 7 23 12 38 12 l25 0 -24 19 c-16 12 -20 21 -12 25 6
4 16 4 21 1 6 -3 10 -2 10 4 0 5 -15 14 -32 20 -43 15 -87 88 -63 105 9 6 21
22 28 36 8 15 30 31 57 41 25 9 44 21 42 25 -4 15 42 13 60 -3 16 -14 18 -14
24 3 4 11 13 26 21 36 20 22 -2 34 -33 18 -16 -9 -27 -10 -36 -2 -7 5 -29 12
-48 14 -33 3 -35 1 -38 -30 -4 -37 -24 -51 -48 -31 -14 11 -16 10 -13 -11 4
-29 -8 -53 -22 -45 -5 4 -9 0 -10 -7 -3 -51 -25 -83 -51 -73 -17 7 -17 23 2
81 13 39 -2 77 -28 72 -14 -3 -16 -14 -14 -65 5 -85 -2 -103 -41 -103 -27 0
-29 -2 -15 -12 17 -14 17 -15 -23 -188 -6 -25 -12 -62 -14 -82 -4 -39 -27 -92
-45 -103 -16 -10 -48 13 -52 37 -3 19 3 66 24 184 2 10 -2 19 -7 19 -6 0 -17
6 -25 12 -69 58 -80 64 -80 49 0 -39 -44 -137 -97 -216 -109 -162 -150 -193
-363 -272 -188 -70 -256 -63 -481 46 -161 79 -213 121 -256 207 -62 124 -102
220 -109 257 -9 59 -14 70 -30 76 -10 4 -13 2 -8 -6 4 -6 8 -21 10 -32 1 -12
9 -36 16 -54 9 -23 9 -37 2 -49 -15 -23 -29 -21 -32 5 -2 15 -19 33 -47 50
-30 18 -44 34 -45 48 0 12 -8 25 -17 28 -15 6 -15 8 -3 16 12 8 12 10 1 10 -7
0 -23 11 -35 24 -24 27 -66 44 -66 26 0 -27 -17 2 -18 30 0 18 -8 42 -17 56
-11 18 -12 24 -3 24 10 0 10 2 0 9 -7 4 -12 12 -10 17 2 5 -5 19 -14 32 -11
17 -17 20 -21 10 -4 -9 -6 -8 -6 3 -1 19 -31 35 -31 16 0 -6 -10 -2 -21 10
-25 25 -17 53 9 30 30 -25 39 -27 37 -7 -3 41 -68 88 -92 68 -15 -12 -17 4 -3
18 7 7 1 19 -18 37 l-28 27 -28 -27 c-25 -23 -27 -30 -21 -62 10 -47 6 -124
-6 -135 -12 -13 -12 -36 2 -36 15 0 79 -67 79 -83 0 -7 5 -18 12 -25 9 -9 9
-12 0 -12 -7 0 -12 5 -12 10 0 6 -7 10 -15 10 -8 0 -15 4 -15 10 0 5 -9 14
-20 20 -16 8 -18 8 -14 -4 3 -8 11 -17 19 -20 7 -2 23 -23 35 -45 22 -38 24
-39 46 -24 13 8 24 11 24 7 0 -5 5 -2 10 6 13 21 12 58 -1 62 -7 2 -10 10 -8
17 3 8 14 -1 29 -23 14 -21 31 -34 38 -31 8 3 12 0 9 -7 -2 -7 -16 -13 -30
-13 -15 1 -27 -4 -27 -10 1 -11 30 -53 30 -42 0 4 36 -30 79 -75 76 -77 101
-121 80 -142 -16 -18 -10 -26 21 -26 31 0 41 -7 182 -133 48 -43 75 -74 71
-83 -3 -9 1 -14 12 -14 9 0 40 -23 69 -50 29 -28 55 -50 59 -50 3 0 45 -30 93
-66 49 -36 101 -68 116 -71 31 -6 38 -23 9 -23 -22 0 -45 -25 -36 -40 3 -5 13
-10 21 -10 11 0 13 6 9 20 -4 14 -2 20 9 20 24 0 96 -31 96 -41 0 -5 5 -9 10
-9 6 0 50 -25 97 -55 95 -60 113 -66 113 -34 0 12 9 37 21 55 22 37 37 47 19
14 -6 -11 -7 -20 -3 -20 4 0 -2 -7 -13 -15 -16 -13 -16 -14 -1 -9 13 5 16 2
11 -10 -3 -9 -1 -16 5 -16 6 0 10 3 9 8 -4 13 30 67 60 94 32 30 78 51 92 43
4 -3 10 1 13 8 7 19 57 20 57 1 0 -12 7 -10 30 9 16 14 39 28 50 32 11 3 20
11 20 17 0 5 7 8 15 5 8 -4 17 -2 20 3 3 4 -1 10 -7 13 -7 3 1 3 17 2 17 -2
30 -4 30 -5 0 -1 35 -2 78 -3 42 -1 77 0 77 3 0 3 22 3 50 2 27 -2 50 -6 50
-8 0 -2 -13 -23 -30 -46 -16 -22 -30 -47 -30 -55 0 -15 -36 -18 -45 -3 -3 6
-13 10 -22 10 -9 0 -32 15 -53 34 -30 27 -43 33 -66 28 -20 -4 -23 -7 -11 -10
18 -4 23 -27 7 -37 -15 -10 -12 -25 8 -32 9 -4 22 -12 27 -19 14 -16 62 -26
70 -14 6 9 12 7 62 -18 13 -7 31 -12 41 -12 34 0 44 -21 19 -43 -14 -12 -16
-18 -7 -16 15 4 21 -7 13 -27 -5 -13 -43 -7 -43 6 0 5 -9 6 -20 3 -16 -4 -20
0 -21 23 -1 29 -1 29 -8 4 -10 -35 14 -50 91 -53 62 -2 63 -2 66 26 3 25 1 28
-17 22 -16 -5 -20 -3 -15 10 7 18 -41 75 -63 75 -19 0 -16 18 7 37 11 10 20
25 20 35 0 13 8 18 26 18 14 0 22 -4 19 -10 -3 -5 6 -12 20 -16 14 -3 25 -13
25 -21 0 -9 5 -11 13 -7 9 6 9 4 -1 -8 -7 -9 -15 -28 -18 -43 -4 -25 -3 -26
26 -20 34 8 37 3 13 -24 -46 -50 -46 -51 -14 -51 16 0 37 7 45 16 19 18 21 28
5 18 -7 -4 -10 -1 -7 6 10 32 36 34 76 7 37 -24 41 -25 54 -9 31 35 31 43 3
36 -17 -4 -32 -1 -43 9 -9 8 -38 24 -64 35 -27 12 -48 25 -48 31 0 5 -8 12
-18 15 -21 7 -56 72 -43 80 5 3 23 -8 41 -25 20 -20 39 -29 51 -26 10 3 17 1
14 -3 -8 -13 9 -20 25 -9 10 6 11 9 3 9 -7 0 -13 5 -13 10 0 7 6 7 18 1 18 -9
24 -11 44 -11 6 0 8 -3 5 -7 -4 -3 -2 -12 4 -19 7 -8 7 -14 -1 -19 -5 -3 -10
-1 -10 4 0 6 -5 11 -11 11 -8 0 -8 -5 1 -15 7 -8 16 -13 20 -10 4 3 11 -7 14
-20 4 -14 12 -25 19 -24 31 4 57 -2 71 -17 9 -8 16 -12 16 -7 0 4 11 -13 24
-39 12 -26 28 -54 36 -62 7 -9 9 -16 5 -16 -5 0 1 -8 13 -18 17 -15 20 -28 18
-73 -3 -53 -4 -54 -32 -51 -16 2 -65 2 -109 1 -44 0 -96 -1 -115 -2 -19 0 -46
2 -60 5 -14 3 -33 1 -44 -4 -13 -7 -16 -7 -12 1 4 6 1 11 -8 11 -8 0 -18 -4
-21 -10 -3 -5 -33 -10 -66 -10 -33 0 -59 -4 -59 -10 0 -5 8 -11 18 -11 9 -1
-1 -5 -23 -9 -22 -4 -49 -11 -60 -15 -17 -8 -18 -7 -7 7 10 13 10 17 -2 21 -8
3 -17 3 -21 -1 -11 -11 -113 -8 -112 3 1 5 -15 14 -35 19 -21 5 -40 17 -43 27
-9 29 -45 31 -77 3 -36 -29 -54 -30 -68 -4 -9 17 -7 20 14 26 13 3 32 4 42 3
24 -4 44 8 44 27 0 10 -14 14 -55 14 -57 0 -125 -21 -125 -39 0 -5 -14 -23
-31 -41 -37 -36 -62 -27 -53 19 4 18 0 32 -10 40 -9 8 -16 10 -16 6 0 -4 -7
-2 -15 5 -9 7 -15 29 -15 52 0 34 -3 39 -17 33 -10 -4 -33 -11 -51 -15 -18 -4
-38 -13 -45 -19 -12 -9 -80 -7 -98 4 -4 3 -11 0 -15 -6 -11 -18 18 -29 64 -24
23 2 42 0 42 -5 0 -15 40 -22 55 -10 12 10 16 9 21 -4 3 -9 15 -16 25 -16 17
0 18 -3 7 -20 -17 -27 -69 -50 -96 -43 -12 3 -30 20 -41 39 -21 36 -56 50 -96
40 -36 -9 -33 -49 8 -90 68 -70 92 -100 89 -113 -2 -7 4 -13 11 -13 8 0 14 -8
13 -17 -1 -13 5 -17 18 -15 17 3 18 1 7 -11 -10 -13 -10 -21 1 -42 13 -24 16
-25 28 -10 12 14 12 18 -1 25 -28 18 4 30 49 18 30 -7 39 -13 30 -19 -10 -7
-6 -14 15 -31 l28 -23 -20 -24 c-26 -30 -18 -44 20 -36 31 7 37 -3 17 -24 -18
-18 33 -61 73 -61 23 0 32 6 43 32 l14 33 1 -39 c1 -36 3 -38 26 -32 32 8 32
3 -7 -50 -25 -35 -38 -44 -60 -44 -19 0 -27 -4 -22 -11 4 -7 25 -9 63 -4 31 4
53 4 50 0 -15 -14 -116 -35 -149 -30 -31 5 -38 2 -58 -25 -15 -20 -18 -30 -10
-31 30 -3 35 -5 51 -21 9 -9 22 -18 29 -20 9 -3 8 -11 -5 -31 l-17 -27 75 0
c48 0 74 4 70 10 -3 5 -1 10 4 10 6 0 11 -4 11 -10 0 -5 13 -10 29 -10 24 0
34 8 55 44 36 62 54 69 22 10 l-26 -49 81 -3 c55 -2 86 1 97 10 12 10 14 10 8
1 -5 -10 30 -12 164 -10 151 2 173 4 181 20 6 9 16 17 23 17 7 0 21 6 31 14
19 14 19 15 1 34 -17 20 -17 20 3 15 12 -3 28 0 36 7 19 16 19 31 1 24 -16 -6
-36 24 -36 54 0 31 24 44 87 47 32 1 86 6 120 10 61 7 63 7 72 -17 6 -15 28
-34 54 -47 25 -12 47 -31 50 -41 3 -14 14 -20 32 -20 15 0 24 -4 20 -10 -3 -5
-1 -10 4 -10 6 0 20 -9 31 -20 11 -11 17 -20 14 -20 -3 0 3 -14 13 -30 16 -28
21 -30 78 -29 33 0 54 3 47 6 -20 8 -54 82 -57 124 -2 22 -1 39 2 39 11 0 77
-83 79 -99 2 -9 5 -25 8 -36 2 -11 5 -23 5 -27 2 -13 51 -9 51 5 0 9 2 9 8 0
12 -19 349 -16 377 3 18 13 18 14 2 14 -10 0 -28 -5 -39 -11 -18 -10 -25 -8
-39 10 -13 15 -16 29 -10 43 8 23 65 58 93 58 22 0 68 -20 91 -39 15 -13 19
-12 30 3 11 15 13 15 15 -10 1 -18 -2 -25 -11 -21 -8 3 -14 -3 -14 -14 -2 -16
6 -19 40 -21 73 -3 144 7 163 23 8 6 17 5 26 -4 7 -7 20 -12 28 -9 8 3 12 1 8
-3 -4 -5 -3 -14 4 -22 9 -11 14 -11 31 4 15 13 21 15 24 5 3 -6 9 -10 14 -6
14 8 11 24 -6 24 -8 0 -19 9 -25 21 -7 11 -14 18 -17 15 -3 -3 0 -12 7 -21 7
-9 10 -18 7 -21 -8 -8 -29 35 -22 46 4 6 15 4 29 -5 12 -8 26 -12 31 -8 4 5 5
3 1 -4 -3 -6 -2 -14 4 -18 5 -3 10 -15 10 -26 0 -18 8 -19 150 -19 122 0 150
3 150 14 0 8 7 17 16 20 11 4 15 2 11 -8 -3 -8 1 -17 9 -20 9 -3 137 -6 284
-6 245 0 270 2 280 17 11 17 11 17 6 1 -5 -17 7 -18 164 -18 155 0 170 2 170
18 1 15 2 15 13 1 13 -17 77 -24 77 -8 0 5 -5 9 -11 9 -6 0 -8 7 -5 16 4 11 2
15 -7 11 -8 -3 -14 1 -14 9 0 9 6 13 15 9 9 -3 19 0 23 7 4 7 11 9 15 5 4 -3
1 -13 -6 -22 -8 -9 -8 -15 -2 -15 6 0 14 5 17 10 12 20 26 10 14 -11 -13 -26
5 -54 20 -30 6 9 11 10 15 2 4 -6 18 -10 31 -9 19 2 24 7 19 20 -3 12 0 18 9
18 10 0 13 -7 10 -20 -4 -17 0 -20 25 -20 31 0 47 11 35 24 -3 3 -12 1 -19 -5
-9 -8 -11 -5 -7 10 4 14 1 21 -10 21 -19 0 -31 30 -17 44 6 6 4 16 -8 29 -16
19 -16 20 6 8 25 -13 46 -6 23 8 -7 5 -12 13 -10 19 2 5 24 -10 49 -35 l45
-45 -34 17 -35 18 17 -26 c9 -14 14 -33 11 -41 -4 -10 -1 -16 9 -16 9 0 17 6
20 12 2 7 2 3 0 -10 -4 -27 8 -29 24 -2 8 12 9 21 3 25 -6 3 -10 11 -10 18 0
8 3 8 12 -1 16 -16 28 -15 28 3 0 8 -4 15 -10 15 -5 0 -10 7 -10 16 0 14 2 14
16 3 14 -11 18 -10 30 5 13 18 14 18 23 -5 5 -14 5 -25 -1 -27 -5 -2 -4 -10 2
-17 8 -9 8 -15 0 -20 -13 -8 -13 -45 0 -45 6 0 10 8 10 18 0 18 43 46 53 35 3
-3 -1 -16 -10 -29 -8 -13 -11 -24 -5 -24 6 0 13 6 15 13 4 9 6 9 6 0 1 -17 38
-17 44 0 4 9 6 9 6 0 1 -10 63 -13 276 -13 l275 0 0 358 0 357 -40 -45 c-21
-25 -39 -50 -40 -55 0 -11 -42 -51 -50 -48 -3 1 -6 -13 -7 -30 -1 -19 -12 -40
-26 -52 -13 -12 -26 -29 -30 -39 -6 -15 -10 -16 -22 -6 -13 10 -15 9 -15 -11
0 -51 -21 -98 -50 -115 -16 -10 -27 -21 -24 -26 3 -4 10 -3 17 2 7 5 27 21 45
36 17 14 30 30 27 35 -4 5 0 6 8 3 20 -7 61 46 47 60 -15 15 -12 29 5 23 8 -4
17 -2 20 3 4 6 1 10 -6 10 -8 0 -7 5 3 18 9 9 13 23 11 30 -3 6 4 15 15 20 11
4 31 21 46 39 17 20 33 30 42 26 10 -4 12 -8 5 -12 -6 -4 -17 -22 -25 -41 -21
-52 -96 -139 -247 -290 -162 -163 -208 -202 -115 -100 37 41 72 84 77 95 8 15
5 14 -9 -4 -21 -26 -68 -37 -88 -20 -8 6 -14 4 -18 -7 -9 -24 3 -35 25 -23 12
6 23 8 26 5 7 -6 -36 -59 -60 -75 -17 -11 -17 -10 -2 18 10 20 11 32 5 36 -13
8 -42 -14 -34 -26 3 -5 -1 -9 -10 -9 -8 0 -22 -3 -31 -6 -9 -4 -15 -3 -14 2 1
5 1 19 0 31 -1 17 -6 21 -23 18 l-21 -4 21 20 c24 22 30 38 8 20 -11 -9 -16
-9 -22 0 -4 7 -2 15 4 17 14 4 16 32 3 32 -13 0 -23 -18 -26 -44 -1 -11 -3
-25 -4 -29 -1 -10 -41 11 -41 23 0 5 7 15 15 23 8 8 11 18 7 21 -3 4 2 4 12 0
16 -6 17 -4 7 13 -13 25 -51 38 -51 17 0 -8 -9 -14 -20 -14 -11 0 -20 5 -20
10 0 6 7 10 16 10 10 0 14 7 12 23 -3 25 -29 30 -41 7 -5 -9 -6 -6 -3 10 4 16
-2 32 -15 46 -15 16 -17 24 -8 29 7 5 10 4 6 -2 -8 -13 24 -39 49 -39 16 0 21
6 20 23 0 13 -5 23 -9 23 -5 0 -5 4 -2 10 3 5 2 10 -4 10 -6 0 -8 7 -5 15 7
17 -11 21 -21 5 -4 -6 -15 -8 -25 -5 -11 4 -23 -1 -32 -13 -7 -10 -23 -21 -34
-24 -18 -5 -21 -1 -20 18 1 27 7 29 24 12 8 -8 15 -9 22 -2 13 13 -15 54 -36
54 -8 0 -12 5 -9 10 3 6 -2 10 -12 10 -15 0 -15 2 -4 9 12 8 12 13 -2 35 -12
18 -14 27 -5 32 7 5 5 11 -7 20 -10 8 -16 17 -12 21 4 3 15 -1 25 -10 44 -40
52 -3 12 54 l-19 27 29 -3 c16 -1 37 -8 47 -16 15 -12 16 -12 10 4 -4 11 -3
16 3 12 6 -3 10 -11 10 -16 0 -15 26 -39 34 -32 3 4 6 1 6 -6 0 -24 37 -53 59
-46 15 4 21 2 21 -9 0 -23 44 -65 65 -62 12 2 19 12 20 30 0 17 -4 25 -11 22
-8 -3 -11 2 -9 14 3 17 -25 35 -50 30 -5 -1 -4 4 3 11 19 21 14 32 -13 27 -37
-7 -51 16 -26 41 11 11 21 28 23 38 2 10 12 21 23 24 18 6 19 7 2 14 -17 7
-56 -27 -57 -52 0 -6 -9 -9 -19 -6 -13 3 -18 11 -14 21 3 10 -2 8 -11 -5 -20
-27 -35 -30 -32 -5 3 20 -15 53 -25 46 -4 -2 -10 3 -13 12 -4 11 -2 15 8 11
11 -4 13 -1 9 11 -6 15 -5 15 10 3 16 -13 17 -12 8 12 -6 15 -6 29 -1 32 4 3
10 0 12 -7 3 -8 7 -6 11 5 6 16 -8 23 -35 18 -5 0 -8 4 -8 10 0 5 -4 7 -10 4
-6 -3 -10 -15 -10 -26 0 -10 -5 -19 -11 -19 -8 0 -8 -5 1 -15 9 -10 9 -15 1
-15 -6 0 -11 5 -11 11 0 6 -7 8 -16 5 -14 -5 -15 -4 -4 9 7 9 10 18 7 21 -3 4
2 14 11 23 10 9 11 12 3 6 -12 -8 -13 -6 -7 10 17 40 19 66 6 63 -7 -2 -14 2
-17 9 -3 9 4 10 26 3 18 -5 33 -5 36 1 4 5 -1 9 -9 9 -9 0 -16 6 -16 13 0 8
-4 7 -11 -3 -8 -12 -10 -12 -7 -1 5 16 38 24 38 10 0 -6 5 -7 10 -4 6 4 8 10
6 14 -3 4 -1 13 4 21 5 9 4 20 -2 28 -9 10 -8 16 2 22 18 11 25 54 8 45 -7 -4
-6 -1 3 7 8 7 18 21 22 30 5 14 11 16 29 9 18 -7 22 -15 20 -40 -2 -25 2 -32
23 -37 14 -3 37 1 56 10 36 18 40 19 37 9 0 -5 2 -17 6 -28 5 -11 10 -26 12
-33 2 -6 13 -12 24 -12 11 0 20 -5 20 -11 0 -8 4 -8 14 0 11 10 16 8 21 -9 4
-13 12 -19 21 -16 8 3 14 1 14 -5 0 -13 54 -33 58 -21 1 5 9 18 17 28 14 17
14 17 5 -9 -15 -41 -13 -49 10 -42 13 4 20 2 18 -5 -2 -7 2 -15 9 -17 14 -5
28 40 18 57 -6 9 -2 9 13 1 16 -8 20 -19 17 -41 -4 -31 9 -41 19 -15 3 8 12
15 20 15 12 0 12 -6 4 -32 -6 -18 -15 -41 -19 -50 -5 -10 -9 -23 -9 -29 0 -6
-7 -27 -16 -46 -23 -48 -5 -64 30 -26 14 15 26 22 26 15 0 -6 5 -12 10 -12 20
0 9 27 -15 38 -14 6 -25 16 -25 22 0 7 9 5 22 -4 12 -9 26 -16 31 -16 12 0 -1
53 -15 61 -6 4 -4 18 6 38 17 32 30 39 41 21 4 -6 -1 -7 -11 -3 -12 4 -15 2
-10 -8 3 -8 9 -22 12 -32 8 -21 20 -22 28 -1 3 8 10 13 15 10 5 -4 11 0 14 6
2 7 8 9 13 5 5 -5 1 -15 -10 -23 -17 -12 -17 -14 -4 -14 9 0 20 9 23 20 3 11
14 20 23 19 11 0 12 -3 5 -6 -7 -2 -12 -17 -12 -31 1 -17 3 -21 6 -9 2 9 8 17
13 17 5 0 8 39 7 88 -1 82 -2 85 -12 48 -6 -22 -17 -42 -23 -44 -15 -5 -15 1
3 68 8 30 12 56 10 58 -2 3 1 14 6 25 6 11 13 32 15 46 4 24 -1 28 -47 46 -28
11 -54 19 -57 18 -4 -1 -10 -19 -15 -39 -6 -29 -4 -39 10 -50 16 -13 16 -13
-7 -10 -14 2 -24 9 -22 15 1 7 4 32 7 56 4 45 -8 61 -40 49 -8 -4 -15 -1 -15
5 0 6 -4 11 -10 11 -18 0 -10 -28 9 -33 14 -3 18 -11 14 -26 -5 -20 -6 -20
-19 -4 -13 17 -13 17 -15 -2 -1 -11 -1 -23 -1 -26 1 -4 -3 -20 -7 -37 -7 -24
-6 -32 6 -36 21 -9 21 -9 28 24 4 16 10 30 15 30 4 0 4 -16 0 -34 -9 -39 -5
-46 22 -46 12 0 18 7 18 21 0 11 4 18 9 15 12 -8 1 -54 -15 -60 -7 -3 -16 -1
-19 4 -12 20 -35 10 -35 -15 0 -23 -2 -24 -21 -15 -21 12 -21 37 0 32 9 -2 9
3 1 18 -9 16 -13 18 -24 8 -7 -7 -11 -19 -9 -25 3 -7 0 -13 -6 -13 -6 0 -11 5
-11 11 0 6 -7 9 -15 5 -9 -3 -15 0 -15 8 0 9 7 12 20 9 14 -4 20 0 21 13 1 11
3 34 5 52 3 37 -3 41 -16 10 -8 -22 -9 -22 -9 5 -1 16 -5 26 -11 22 -16 -10
-12 -52 6 -59 16 -6 11 -26 -7 -26 -6 0 -7 4 -4 10 8 14 -8 13 -22 -1 -9 -9
-11 -7 -7 7 4 16 -3 22 -35 30 -29 8 -42 8 -45 0 -3 -6 -8 -1 -11 11 -8 23
-31 37 -47 27 -6 -4 -14 0 -19 7 -7 11 -9 11 -9 1 0 -9 -5 -10 -19 -3 -10 6
-21 7 -25 3 -4 -3 -4 1 -1 9 4 10 -3 20 -22 29 -16 7 -23 15 -15 17 6 3 12 18
12 34 0 29 13 39 25 19 3 -5 2 -10 -3 -10 -5 0 -12 -11 -14 -25 -6 -28 12 -34
32 -10 9 11 9 15 1 15 -9 0 -8 8 3 28 8 15 17 35 20 45 3 10 10 15 16 12 15
-9 12 4 -4 20 -10 11 -16 11 -26 2 -9 -8 -11 -8 -7 -1 4 7 0 17 -8 24 -8 7
-15 11 -16 9 -6 -32 -5 -39 12 -44 25 -8 15 -25 -11 -18 -14 4 -20 14 -20 33
0 22 -6 30 -31 39 -29 10 -31 9 -26 -9 3 -12 0 -20 -8 -20 -7 0 -15 -10 -19
-22 -9 -35 -7 -41 9 -34 8 3 15 1 15 -4 0 -6 8 -10 18 -10 10 0 19 -6 19 -14
0 -8 -8 -12 -21 -9 -17 4 -18 3 -6 -6 13 -10 13 -11 0 -11 -12 -1 -12 -3 2
-14 13 -10 15 -15 6 -24 -16 -16 -31 -15 -25 2 3 8 -1 17 -9 20 -25 10 -34 7
-34 -10 0 -10 6 -14 14 -11 8 3 17 -1 20 -9 3 -8 -1 -14 -10 -14 -8 0 -12 -4
-9 -10 3 -6 -1 -7 -9 -4 -9 3 -14 10 -11 14 3 5 1 11 -5 15 -7 4 -7 12 0 24 5
10 6 22 2 26 -4 4 5 5 20 1 21 -5 26 -3 23 12 -1 9 -8 16 -14 14 -17 -4 -25
26 -11 43 7 8 10 15 6 15 -3 0 0 15 7 32 8 18 12 39 10 46 -6 16 -3 15 36 -4
17 -9 37 -17 44 -18 7 -2 23 -7 37 -13 28 -11 70 -11 89 1 10 6 9 12 -3 25
-13 14 -13 20 -3 30 10 11 6 12 -19 7 -27 -6 -32 -4 -38 16 -5 19 -8 20 -16 8
-8 -13 -10 -12 -10 3 0 19 24 17 90 -11 35 -14 35 -14 15 6 -11 10 -26 17 -34
14 -9 -3 -12 -1 -7 6 5 8 1 10 -10 5 -12 -4 -15 -3 -10 6 5 8 3 12 -5 10 -27
-3 -40 1 -34 11 4 6 12 7 18 4 8 -5 9 -4 2 4 -5 5 -19 12 -30 15 -19 5 -19 5
3 12 12 4 22 11 22 16 0 16 -17 9 -43 -16 -23 -24 -47 -20 -32 5 9 14 -8 12
-25 -2 -12 -11 -12 -10 -2 4 10 13 10 18 1 24 -7 4 -14 3 -17 -4 -2 -6 -10 -8
-19 -5 -11 4 -14 2 -9 -5 4 -6 -11 -2 -33 10 -36 19 -39 23 -23 34 14 11 15
17 5 43 -6 17 -7 31 -2 31 5 0 9 5 9 11 0 5 -4 8 -10 4 -5 -3 -8 7 -7 25 1 16
8 30 15 30 17 0 15 39 -3 46 -11 5 -15 23 -15 71 0 58 2 64 18 57 9 -4 44 -17
77 -29 33 -12 87 -34 119 -49 33 -14 71 -29 85 -33 14 -3 45 -14 69 -24 23
-10 42 -15 42 -10 0 8 -70 41 -103 47 -25 6 -134 52 -187 80 -25 13 -50 24
-57 24 -25 0 -62 23 -60 39 0 9 -2 28 -6 42 -5 19 -3 29 8 33 21 8 19 26 -2
27 -11 0 -13 3 -5 6 14 5 17 33 3 33 -6 0 -10 8 -9 18 0 22 -20 168 -33 235
-6 36 -6 53 2 58 8 5 8 8 0 10 -6 2 -15 19 -20 37 l-10 33 47 -5 c26 -3 84 -7
129 -8 46 -2 83 -6 83 -10 0 -4 6 -5 14 -2 8 3 24 0 36 -6 13 -7 20 -8 16 -2
-7 12 112 4 138 -10 13 -7 16 -7 11 1 -5 8 6 11 37 10 45 -2 72 -15 62 -30 -5
-8 3 -10 49 -13 10 -1 22 -8 27 -16 9 -13 11 -13 20 0 8 13 11 13 19 1 5 -7
13 -11 18 -8 5 3 21 0 35 -7 l26 -14 0 46 c1 49 -8 62 -45 62 -12 0 -24 4 -27
9 -4 5 8 8 26 5 18 -2 26 -1 18 3 -8 3 -21 13 -28 22 -8 9 -11 10 -7 4 3 -7 1
-13 -4 -13 -6 0 -11 5 -11 11 0 6 -9 8 -21 4 -20 -7 -22 -5 -16 29 4 23 2 36
-5 36 -6 0 -9 -3 -5 -6 3 -4 -3 -24 -14 -45 -18 -37 -22 -39 -59 -37 -22 2
-40 8 -40 13 0 6 -5 3 -10 -5 -7 -10 -12 -12 -17 -4 -13 18 -62 23 -74 8 -14
-17 -85 -18 -93 -1 -5 10 -7 10 -12 0 -6 -14 -44 -18 -44 -5 0 4 -62 8 -138
10 -75 2 -140 6 -143 10 -4 4 -14 41 -23 83 -9 42 -30 118 -47 169 -17 51 -28
94 -26 97 3 2 28 4 56 5 28 0 51 4 51 10 0 5 -17 9 -37 7 -65 -3 -83 0 -89 19
-3 9 -10 26 -14 37 -40 91 -57 145 -47 145 7 0 5 6 -5 13 -9 8 -42 62 -73 123
-62 120 -81 151 -199 333 -85 132 -82 119 -51 194 7 16 4 18 -21 15 -21 -2
-30 -10 -34 -28 l-6 -25 -18 28 c-17 25 -23 27 -88 27 -38 0 -79 -5 -90 -11
-16 -8 -22 -8 -29 2 -7 11 -11 11 -21 1 -10 -10 -10 -15 2 -22 8 -6 10 -10 3
-10 -6 0 -9 -9 -6 -20 3 -11 10 -17 15 -14 5 3 7 9 4 12 -7 6 13 32 24 32 12
0 -15 -69 -33 -87 -15 -16 -18 -15 -40 5 -13 12 -29 22 -35 22 -7 0 -12 4 -12
10 0 5 -6 7 -14 4 -18 -7 -29 25 -14 43 6 8 22 13 35 10 13 -2 23 -1 23 3 0
13 -29 20 -76 20 -35 0 -42 -3 -37 -16 4 -11 9 -12 16 -5 6 6 17 11 24 11 23
0 -2 -33 -25 -35 -12 -1 -19 2 -16 7 3 4 -4 8 -15 8 -14 0 -19 5 -15 15 9 22
-45 19 -70 -4 -12 -10 -31 -22 -43 -25 -18 -6 -21 -3 -19 19 3 25 2 25 -66 25
-48 0 -67 -3 -62 -11 5 -8 1 -8 -14 0 -25 14 -82 15 -82 1 0 -18 78 -93 98
-95 11 0 27 -7 36 -14 16 -14 17 -13 28 28 3 11 7 10 21 -3 26 -26 21 -34 -25
-41 -24 -4 -48 -11 -53 -16 -6 -4 -27 -4 -47 0 -39 9 -48 6 -48 -17 0 -10 7
-12 25 -8 18 5 27 1 34 -13 6 -10 22 -22 37 -25 19 -5 24 -10 16 -18 -13 -13
-102 8 -102 24 0 19 -38 59 -45 48 -4 -6 -4 -14 -1 -17 3 -3 1 -12 -4 -18 -8
-9 -4 -11 15 -7 33 6 33 -16 -1 -24 -16 -4 -23 -12 -20 -20 6 -16 -29 -20 -39
-4 -3 6 -13 10 -22 10 -13 0 -13 -3 -3 -15 10 -13 9 -15 -12 -15 -13 0 -29 -5
-36 -12 -9 -9 -12 -8 -12 8 0 13 -7 20 -20 21 -11 1 -20 -2 -20 -8 0 -5 -4 -9
-10 -9 -23 0 -7 27 28 45 20 11 43 26 50 32 7 7 19 14 25 14 27 3 32 4 35 12
5 16 1 25 -14 31 -15 6 -15 4 -3 -11 12 -15 12 -16 -4 -10 -11 4 -16 3 -12 -3
5 -8 -8 -14 -17 -8 -2 1 -13 -4 -26 -11 -18 -10 -23 -9 -28 3 -3 8 -15 18 -26
22 -18 5 -19 7 -5 22 9 8 32 16 52 16 30 1 35 4 35 25 0 13 -3 22 -6 18 -4 -3
-13 0 -21 8 -17 17 -33 19 -33 5 0 -5 5 -10 10 -10 16 0 11 -27 -6 -34 -26
-10 -36 -7 -30 9 4 12 0 14 -21 9 -18 -5 -24 -4 -19 5 4 6 18 11 32 11 26 0
33 17 9 26 -19 8 -19 23 0 31 9 3 22 -2 30 -13 10 -13 14 -15 15 -5 0 10 9 12
33 7 29 -5 30 -4 14 8 -23 18 -321 23 -332 6 -3 -5 -11 -10 -16 -10 -6 0 -8 3
-6 8 3 4 -11 8 -31 9 l-37 2 43 -15 c35 -12 46 -13 59 -3 12 11 17 10 24 -4 6
-9 19 -17 29 -17 29 0 35 -20 11 -43 -11 -12 -21 -16 -21 -10 0 7 -7 10 -16 6
-10 -4 -17 2 -21 16 -5 20 -10 21 -48 15 -39 -5 -44 -4 -50 16 -5 16 -9 19
-15 10 -9 -14 -30 -5 -30 14 0 9 -25 13 -90 14 -78 1 -108 -6 -82 -21 4 -2 1
-2 -5 -1 -7 2 -13 -1 -13 -6 0 -6 -5 -10 -11 -10 -5 0 -7 5 -4 10 3 6 -1 10
-10 10 -11 0 -15 -7 -13 -22 2 -15 -3 -24 -14 -26 -14 -3 -18 3 -18 23 0 15 4
24 10 20 6 -3 7 1 4 9 -3 9 -15 16 -25 16 -12 0 -16 -5 -13 -15 4 -9 0 -15
-10 -15 -9 0 -16 6 -16 14 0 10 -20 14 -77 15 -77 2 -77 2 -59 -18 21 -23 14
-56 -9 -47 -8 3 -15 1 -15 -4 0 -6 5 -10 10 -10 6 0 10 -4 10 -10 0 -5 -8 -10
-18 -10 -10 0 -23 -5 -30 -12 -16 -16 -16 4 1 21 10 10 8 12 -8 9 -26 -4 -26
-39 0 -56 20 -12 20 -12 0 -10 -11 2 -20 -2 -20 -9 0 -33 -42 -11 -58 31 -5
12 -14 17 -27 13 -14 -3 -29 5 -50 29 -16 19 -30 38 -30 42 1 4 9 -3 19 -15
26 -31 50 -15 33 22 -11 24 -11 26 8 20 11 -3 20 -2 20 3 0 7 -115 11 -308 11
-304 2 -309 1 -338 -21z m1596 -337 c0 -10 6 -21 14 -24 9 -4 13 -16 11 -32
-2 -22 1 -26 16 -22 12 3 19 0 19 -9 0 -8 -7 -14 -16 -14 -10 0 -14 -6 -11
-14 3 -8 -3 -22 -13 -31 -11 -10 -17 -21 -15 -25 3 -4 -6 -15 -20 -24 -14 -9
-25 -23 -25 -31 0 -8 -4 -15 -10 -15 -5 0 -26 -19 -47 -42 -21 -23 -51 -54
-68 -70 l-29 -29 -17 23 c-13 17 -14 25 -6 30 8 5 6 8 -5 8 -13 0 -17 9 -17
33 0 69 -1 80 -12 93 -14 17 -1 40 14 25 15 -15 28 -14 26 2 -3 19 12 67 21
67 5 0 20 -4 35 -10 21 -8 29 -6 48 13 12 12 25 21 29 20 4 -2 5 4 2 12 -4 8
1 18 10 21 9 4 23 19 32 35 17 33 34 38 34 10z m-1226 -278 c11 -11 30 -10 38
1 3 5 13 2 23 -7 21 -21 26 -21 18 -1 -6 16 91 -47 103 -67 3 -5 13 -9 23 -9
14 0 17 6 14 25 -5 23 -4 24 45 20 28 -3 54 0 57 5 4 6 11 7 17 4 7 -5 9 0 6
13 -5 19 -4 20 20 7 15 -7 37 -11 49 -8 13 4 23 2 23 -3 0 -6 11 -15 24 -21
19 -9 27 -8 37 4 10 12 13 12 23 0 6 -9 23 -20 39 -25 24 -9 27 -8 27 12 1 18
3 17 15 -10 14 -32 52 -52 74 -38 6 3 11 1 11 -4 0 -6 11 -11 25 -11 14 0 25
-4 25 -9 0 -4 -24 -8 -52 -7 -29 0 -54 -3 -55 -9 -1 -5 8 -9 21 -7 12 2 34 -6
48 -18 14 -11 29 -20 33 -20 4 0 25 -14 47 -31 34 -28 42 -30 64 -20 37 17 69
13 89 -9 10 -11 28 -20 39 -20 23 0 56 -32 56 -54 0 -17 24 -38 33 -29 17 16
5 -37 -13 -60 -11 -14 -20 -31 -20 -38 0 -6 -9 -2 -19 10 -19 21 -127 71 -155
71 -9 0 -32 9 -53 19 -21 11 -49 22 -63 24 -28 4 -47 11 -106 37 -22 10 -60
20 -85 23 -24 2 -51 7 -59 9 -8 3 -35 13 -60 22 -25 9 -54 16 -63 16 -11 0
-15 5 -11 11 4 8 -1 9 -17 4 -13 -4 -21 -4 -17 0 8 8 -52 55 -69 55 -5 0 -21
12 -36 26 -19 17 -34 23 -48 19 -24 -8 -139 43 -139 61 0 7 -10 14 -22 16 -12
2 -23 9 -26 16 -4 13 10 16 22 5z m-346 -15 c7 -7 12 -19 12 -27 0 -16 38 -61
52 -61 4 0 8 13 8 29 0 17 4 32 9 36 16 9 41 -37 41 -75 0 -19 4 -51 10 -70 5
-19 14 -75 19 -124 6 -49 14 -92 19 -95 13 -8 23 -81 11 -81 -5 0 -9 5 -9 10
0 7 -6 7 -19 0 -29 -15 -67 -12 -86 6 -9 10 -22 13 -33 9 -9 -4 -46 -9 -81
-12 -49 -3 -62 -1 -58 9 3 8 -5 14 -21 15 -13 0 -36 12 -50 26 l-25 26 29 -1
c16 -1 47 2 69 6 34 7 43 14 53 39 7 18 26 58 43 90 26 50 29 64 23 105 -4 26
-7 54 -5 63 1 9 -7 33 -18 53 -20 35 -17 48 7 24z m357 -122 c14 -14 30 -45
37 -70 13 -48 22 -57 32 -30 6 16 48 15 89 -1 44 -18 51 -83 13 -114 -15 -12
-22 -12 -52 2 -19 9 -43 31 -53 48 l-19 31 -18 -31 c-23 -39 -52 -40 -89 -1
-21 22 -29 42 -33 79 -9 99 38 142 93 87z m1641 -41 c-3 -8 -1 -15 5 -15 6 0
9 -6 6 -13 -3 -8 1 -14 8 -14 10 0 11 5 4 18 -8 15 -6 17 13 14 26 -5 55 -32
45 -42 -4 -3 -14 2 -22 13 -14 18 -15 18 -6 -6 5 -15 15 -24 25 -22 9 2 16 -2
16 -7 0 -5 16 -15 35 -22 36 -13 50 -35 16 -24 -14 4 -26 -2 -42 -24 -17 -23
-26 -28 -39 -21 -18 10 -33 3 -24 -11 2 -4 11 -6 18 -3 8 3 17 1 20 -5 9 -14
36 -2 36 15 0 10 6 11 25 4 20 -8 25 -6 25 6 0 14 2 14 16 3 10 -8 12 -15 5
-17 -13 -4 -15 -32 -2 -32 6 0 13 5 16 10 3 6 15 10 26 10 10 0 24 9 31 19 9
15 16 17 29 10 12 -6 19 -4 23 7 3 9 4 20 0 25 -3 5 2 9 10 9 10 0 13 -6 10
-15 -5 -13 -2 -14 21 -5 36 14 55 13 55 -3 0 -9 -9 -12 -29 -9 -23 3 -30 -1
-36 -17 -4 -13 -14 -20 -28 -20 -40 1 -62 -6 -77 -23 -23 -25 -59 -33 -66 -14
-3 9 -17 16 -30 16 -16 0 -22 -4 -18 -14 10 -25 -13 -26 -49 -2 -25 18 -38 21
-46 13 -18 -18 -13 -24 19 -24 34 0 45 -7 35 -23 -5 -8 -11 -8 -21 1 -8 6 -14
7 -14 2 0 -5 -6 -10 -12 -10 -31 -1 -68 -13 -92 -28 -25 -17 -26 -17 -26 4 0
27 -12 27 -36 0 -14 -16 -15 -21 -4 -17 8 3 23 1 33 -4 14 -7 15 -13 7 -29
-14 -25 13 -38 35 -16 14 14 14 17 -2 26 -16 9 -16 10 3 11 12 0 24 -7 28 -15
3 -8 13 -15 22 -15 10 0 14 5 10 15 -3 10 1 15 14 15 10 0 22 5 25 10 12 19
45 11 45 -10 0 -11 -3 -19 -7 -18 -5 0 -19 -4 -33 -10 -22 -9 -22 -11 -5 -11
11 -1 30 6 42 14 19 13 23 12 47 -8 14 -12 26 -27 26 -32 0 -6 -4 -4 -8 3 -7
9 -15 10 -35 3 -28 -11 -32 -40 -9 -63 7 -7 12 -19 12 -27 -1 -13 -3 -13 -11
2 -6 9 -15 14 -21 11 -7 -4 -8 -2 -4 4 4 7 1 21 -8 33 l-14 21 -4 -23 c-2 -17
-10 -23 -28 -24 -14 0 -31 -4 -37 -8 -9 -6 -11 -3 -7 7 9 23 -19 20 -34 -4 -8
-13 -23 -20 -41 -20 -35 0 -50 18 -29 34 8 6 15 16 14 21 -1 6 11 11 26 13 31
4 61 32 34 32 -9 0 -16 -4 -16 -10 0 -5 -13 -7 -30 -4 -25 6 -31 3 -40 -20 -5
-14 -12 -26 -14 -26 -3 0 -2 8 1 18 6 14 4 15 -9 5 -8 -7 -17 -10 -21 -7 -3 3
-12 -3 -19 -15 -7 -12 -18 -21 -25 -21 -12 0 -14 5 -13 25 1 3 -7 13 -16 22
-13 14 -14 18 -3 22 8 3 15 14 15 24 2 14 -1 15 -12 6 -8 -6 -23 -9 -34 -6
-13 3 -20 0 -20 -9 0 -8 -8 -17 -17 -21 -10 -3 -37 -14 -60 -25 -42 -19 -42
-19 -65 1 -34 32 -83 23 -61 -11 19 -32 5 -60 -17 -33 -17 21 -29 19 -23 -4 4
-14 -1 -18 -19 -18 -15 0 -24 6 -24 16 -1 9 -5 29 -9 45 l-8 30 31 -22 c39
-28 42 -28 39 7 -1 16 -5 27 -8 25 -4 -2 -12 3 -19 11 -7 8 -23 15 -36 15 -13
0 -24 4 -24 10 0 5 27 38 60 73 33 36 60 69 60 73 0 12 96 75 118 78 10 2 17
9 17 16 0 7 11 15 24 17 14 2 33 11 43 20 16 14 18 14 18 0 0 -18 25 -16 89 7
50 18 65 20 56 6 -8 -13 1 -13 26 0 15 9 21 7 27 -7 4 -10 13 -19 21 -21 12
-3 12 -1 0 14 -12 16 -12 17 4 11 9 -3 18 -2 18 3 4 30 20 60 31 60 6 0 8 -7
4 -15z m-1566 -186 c33 -35 47 -89 34 -128 -12 -32 -48 -39 -76 -14 -25 23
-52 87 -52 127 0 29 13 39 56 45 4 1 21 -13 38 -30z m177 -219 c-1 -3 7 -17
16 -32 24 -36 9 -64 -41 -78 -20 -5 -55 -21 -77 -35 -40 -24 -40 -24 -12 -25
22 0 28 -4 25 -17 -2 -12 -13 -18 -30 -18 -14 0 -30 -3 -34 -7 -4 -5 0 -8 9
-8 25 0 21 -19 -5 -25 -45 -9 -53 -9 -76 4 -28 15 -18 32 37 61 25 13 30 19
17 20 -15 0 -17 5 -12 32 9 46 33 78 70 93 18 8 38 21 46 29 11 15 71 20 67 6z
m-923 -1192 c23 -29 28 -32 46 -20 27 17 27 16 32 -22 2 -20 0 -32 -5 -29 -5
3 -8 0 -5 -8 3 -8 17 -14 31 -13 20 0 27 -5 27 -19 0 -11 -4 -15 -11 -11 -8 4
-9 -1 -4 -17 3 -13 9 -31 11 -40 3 -10 -6 -23 -22 -34 -25 -16 -27 -16 -56 12
-16 15 -46 53 -67 84 -67 100 -46 205 23 117z m536 -26 c0 -51 -132 -157 -208
-167 -25 -3 -29 -1 -25 16 3 10 9 19 14 19 5 0 15 14 24 30 15 29 51 56 131
99 47 26 64 26 64 3z m-72 -184 c7 -7 12 -24 12 -38 0 -46 13 -45 58 3 9 9 21
17 27 17 5 0 3 -5 -5 -10 -8 -5 -10 -10 -4 -10 5 0 14 4 20 10 5 5 27 12 48
15 29 5 36 4 30 -6 -5 -9 -2 -10 10 -6 11 4 5 -7 -14 -27 -18 -19 -46 -37 -62
-40 -16 -3 -41 -14 -54 -25 -19 -15 -31 -17 -60 -11 -43 10 -51 17 -56 50 -2
17 -10 26 -25 28 -13 2 -23 -1 -23 -7 0 -6 7 -11 15 -11 8 0 15 -5 15 -10 0
-7 -7 -7 -21 0 -20 11 -23 44 -4 46 18 1 65 27 65 36 0 12 14 10 28 -4z m1447
-428 c4 -6 21 -10 38 -9 18 1 42 -1 55 -5 13 -5 22 -3 22 3 0 6 4 11 10 11 5
0 7 -6 5 -12 -6 -16 62 -63 90 -63 15 0 20 -7 21 -33 1 -19 12 -44 25 -58 21
-23 21 -24 3 -25 -56 -5 -94 -3 -94 4 0 4 -18 7 -39 7 -22 0 -52 5 -67 10 -33
13 -100 71 -96 83 1 5 -3 15 -9 23 -6 8 -8 14 -3 15 5 0 -1 4 -14 9 -21 9 -22
10 -5 30 19 21 48 26 58 10z m-1888 -195 c23 -16 43 -70 43 -117 0 -36 10 -35
35 5 25 40 59 47 78 15 17 -28 22 -94 7 -103 -5 -3 -10 -13 -10 -21 0 -20 -45
-64 -65 -64 -25 0 -55 19 -55 35 0 8 -9 15 -20 15 -90 0 -154 113 -115 200 23
50 62 63 102 35z m1513 -84 c0 -11 -5 -23 -10 -26 -6 -4 -7 -11 -4 -17 5 -7
10 -3 15 10 12 31 27 27 22 -5 l-5 -28 19 22 c22 27 46 17 41 -18 -2 -18 -10
-25 -30 -27 -18 -2 -28 1 -28 10 0 7 -7 2 -16 -10 -8 -12 -24 -22 -34 -22 -10
0 -22 -5 -26 -11 -3 -6 -20 -17 -38 -24 -34 -15 -59 -4 -49 21 4 10 0 12 -11
8 -10 -4 -16 -1 -16 7 0 7 -3 9 -6 6 -4 -4 -1 -13 6 -22 10 -12 10 -16 -1 -19
-38 -12 -41 -16 -11 -13 18 2 35 0 38 -4 7 -12 -15 -61 -25 -55 -5 4 -11 0
-14 -6 -6 -15 -37 53 -37 79 1 23 26 68 37 67 4 -1 7 2 6 6 -1 4 11 13 27 20
17 7 30 16 30 21 0 11 23 7 32 -6 4 -6 8 -2 8 8 0 10 4 16 9 13 4 -3 17 3 27
14 25 25 44 25 44 1z m-1177 -27 c48 -24 87 -65 87 -90 0 -30 -25 -54 -57 -54
-54 0 -143 71 -143 114 0 18 38 46 63 46 10 0 32 -7 50 -16z m1910 -46 c21 4
117 -74 117 -94 0 -8 -5 -14 -11 -14 -6 0 -1 -13 11 -30 12 -16 22 -43 22 -60
1 -16 9 -38 20 -49 10 -11 18 -24 17 -28 -4 -22 2 -43 12 -43 6 0 9 7 6 15 -4
8 -2 17 3 20 6 4 10 -18 10 -54 0 -34 -3 -61 -7 -62 -79 -6 -125 -12 -160 -18
-26 -5 -43 -5 -43 1 0 5 -5 6 -10 3 -6 -3 -13 2 -17 11 -4 10 -2 19 5 22 7 2
12 8 12 13 0 6 -3 8 -7 6 -5 -3 -8 8 -8 24 0 19 4 28 13 24 8 -3 12 10 12 45
0 28 -4 50 -9 50 -5 0 -4 11 2 25 7 14 19 25 29 25 11 0 15 6 11 21 -4 16 -8
17 -14 7 -12 -19 -11 0 1 23 7 13 8 25 1 37 -7 10 -11 12 -11 4 0 -25 -18 -2
-34 43 -10 32 -11 43 -3 38 7 -4 20 -6 30 -5z m-430 -68 c21 -16 148 -70 166
-70 2 0 -2 -6 -9 -14 -6 -8 -17 -13 -24 -10 -8 3 -22 -10 -34 -30 -20 -34 -27
-37 -127 -63 -60 -16 -161 1 -168 27 -7 26 49 111 71 108 9 -2 17 3 17 10 0
14 54 61 71 62 6 0 23 -9 37 -20z m-1872 -40 c53 -29 -24 -190 -90 -190 -20 0
-41 51 -41 98 0 23 10 41 37 67 37 36 60 42 94 25z"/>
<path d="M139 3463 c0 -5 -3 -17 -6 -28 -2 -11 -7 -35 -10 -52 -3 -18 -9 -33
-13 -33 -5 0 -14 -16 -21 -35 -7 -19 -17 -35 -21 -35 -4 0 -8 -9 -8 -20 0 -19
-5 -22 -40 -24 -21 -1 -26 -141 -7 -180 13 -23 15 -24 21 -9 4 11 1 22 -8 29
-9 6 -16 19 -16 29 0 15 6 17 38 12 20 -4 31 -3 25 1 -10 6 -10 15 0 43 6 18
16 37 21 40 5 4 6 15 2 25 -4 10 -4 15 0 12 3 -4 14 1 23 10 12 12 17 33 16
70 -1 36 3 52 12 52 7 0 13 7 13 16 0 8 -4 12 -10 9 -5 -3 -10 -1 -10 4 0 6 7
11 15 11 10 0 14 7 11 23 -3 12 -5 25 -5 30 -1 4 -5 7 -11 7 -5 0 -10 -3 -11
-7z"/>
<path d="M2282 3367 c-12 -13 -22 -34 -22 -46 0 -61 -81 -137 -157 -148 -40
-6 -44 -8 -23 -13 14 -4 44 -5 67 -3 37 4 50 0 102 -35 l60 -40 12 35 c11 35
2 55 -40 89 -22 18 -18 103 8 147 26 43 24 47 -7 14z"/>
<path d="M125 3150 c-3 -10 -4 -30 -1 -44 3 -15 -1 -32 -9 -40 -8 -8 -16 -25
-19 -39 -2 -14 -12 -37 -21 -51 -12 -17 -13 -26 -5 -26 11 0 -26 -72 -42 -78
-4 -2 -4 -10 -2 -17 8 -21 -6 -41 -17 -24 -6 10 -9 8 -9 -8 0 -14 6 -23 15
-23 8 0 15 -4 15 -10 0 -5 -7 -7 -15 -4 -8 4 -15 2 -15 -4 0 -6 6 -12 13 -15
9 -3 9 -7 -1 -19 -11 -13 -9 -17 14 -22 14 -4 28 -5 30 -3 10 10 10 74 0 86
-8 11 -8 13 2 7 15 -9 16 6 1 21 -8 8 -6 11 7 10 13 -2 20 8 26 33 4 19 5 41
3 48 -2 6 2 12 10 12 18 0 31 20 18 29 -18 11 -23 41 -8 41 16 0 31 43 21 59
-4 5 -1 13 7 18 7 4 18 24 24 44 10 35 9 37 -13 37 -14 0 -26 -8 -29 -18z"/>
<path d="M2152 2270 c-21 -67 -15 -113 19 -169 18 -28 37 -51 42 -51 6 0 8 -3
4 -6 -3 -4 3 -24 14 -46 22 -43 180 -208 199 -208 7 0 33 -15 59 -33 63 -45
157 -85 238 -102 37 -8 69 -19 71 -25 5 -15 22 -12 22 4 0 9 21 15 70 20 62 6
74 5 99 -13 16 -12 34 -21 40 -21 18 0 8 24 -13 33 -19 8 -19 8 0 21 10 7 30
17 44 21 14 4 37 16 53 27 15 11 27 16 27 13 0 -4 7 1 16 10 9 9 23 14 30 11
8 -3 11 0 8 8 -6 16 37 46 68 46 21 1 21 2 5 11 -15 9 -28 3 -70 -29 -48 -36
-128 -82 -152 -88 -137 -34 -249 -44 -330 -29 -57 11 -193 78 -264 130 -34 25
-64 45 -67 45 -14 0 -154 193 -154 213 0 5 -6 15 -14 23 -22 21 -50 123 -49
177 1 26 0 47 -1 47 0 0 -7 -18 -14 -40z"/>
<path d="M3422 2014 c-12 -20 -19 -40 -16 -46 4 -6 3 -8 -3 -5 -6 4 -21 -6
-34 -21 l-24 -27 27 24 27 24 10 -25 c5 -13 7 -54 4 -90 -6 -65 -5 -66 19 -61
17 3 33 -4 56 -25 l32 -30 26 45 c16 28 31 43 40 39 10 -4 12 2 7 27 -7 40 -7
40 -45 44 -41 4 -83 34 -83 59 0 10 -6 23 -13 27 -8 6 -11 20 -6 43 3 19 5 34
3 34 -2 -1 -14 -17 -27 -36z"/>
<path d="M4705 1980 c-3 -5 4 -15 15 -22 12 -7 38 -42 58 -78 20 -36 54 -91
77 -122 51 -73 76 -115 92 -157 14 -36 10 -51 -13 -51 -9 0 -14 -11 -14 -31 0
-26 3 -29 20 -24 26 8 26 -11 -1 -25 -16 -9 -24 -8 -39 5 -16 14 -18 14 -24 0
-7 -20 26 -91 42 -87 7 1 12 -2 12 -8 0 -5 7 -7 15 -4 8 4 15 1 15 -5 0 -6 -4
-11 -10 -11 -5 0 -10 -5 -10 -11 0 -6 8 -9 17 -7 15 3 23 26 24 71 0 9 4 17 9
17 16 0 23 42 9 51 -11 7 -12 12 -2 28 10 15 10 21 0 24 -9 4 -9 6 0 6 7 1 10
7 7 15 -3 7 6 27 20 44 15 16 26 40 26 52 0 12 5 30 10 40 17 32 -4 101 -41
132 -18 15 -35 25 -38 23 -2 -3 -11 1 -20 8 -9 8 -52 29 -96 47 -44 18 -92 45
-107 61 -28 30 -43 36 -53 19z"/>
<path d="M3952 1921 c2 -20 -4 -31 -17 -31 -8 0 -15 -5 -15 -11 0 -6 6 -9 14
-6 9 4 22 -5 32 -20 15 -24 15 -27 0 -38 -22 -17 -20 -25 7 -25 47 0 95 -89
50 -90 -13 -1 -9 -6 11 -16 15 -9 40 -14 54 -11 24 5 25 4 9 -8 -20 -14 -13
-47 9 -38 9 3 14 21 14 53 0 38 -5 51 -24 66 -14 10 -23 21 -20 26 3 4 -1 6
-8 3 -7 -2 -22 2 -32 10 -17 13 -18 18 -7 41 7 16 17 24 25 21 11 -5 12 1 5
25 -4 17 -6 35 -3 39 8 14 -10 10 -32 -6 -24 -18 -48 -19 -41 -1 3 8 -2 16
-13 19 -11 3 -19 2 -18 -2z"/>
<path d="M6080 1815 c0 -15 7 -26 20 -30 14 -4 20 -15 20 -36 0 -27 2 -29 40
-29 22 0 40 5 40 10 0 6 13 10 28 10 15 0 33 5 40 12 17 17 15 58 -2 58 -8 0
-16 7 -20 15 -6 17 -46 21 -46 5 0 -5 -9 -10 -20 -10 -11 0 -20 4 -20 9 0 5
-18 9 -40 9 -36 1 -40 -2 -40 -23z"/>
<path d="M5857 1792 c-22 -24 -22 -38 0 -21 15 13 15 12 2 -8 -9 -16 -16 -19
-21 -10 -9 15 -58 -34 -58 -58 0 -9 -9 -34 -20 -55 -11 -22 -18 -40 -15 -40 3
0 1 -9 -5 -21 -15 -28 -20 -58 -11 -63 12 -8 80 32 107 62 19 22 23 38 24 89
0 34 3 68 6 77 7 18 39 22 49 6 3 -5 11 -10 17 -10 10 0 -42 68 -53 69 -3 1
-13 -7 -22 -17z"/>
<path d="M7654 1710 c-4 -16 -10 -30 -14 -30 -4 0 -10 -9 -13 -20 -4 -14 -10
-18 -22 -14 -15 6 -15 4 -4 -15 8 -11 17 -21 22 -21 4 0 5 4 2 10 -3 6 1 7 9
4 9 -3 16 -17 16 -30 0 -28 -15 -32 -28 -8 -6 11 -11 13 -16 5 -11 -16 -24
-13 -22 5 0 9 -5 19 -11 21 -12 4 -18 -15 -14 -42 1 -5 -6 -1 -14 10 -12 15
-18 17 -24 7 -12 -19 -40 -4 -34 19 3 10 0 19 -6 19 -6 0 -11 -7 -11 -15 0
-18 -16 -20 -26 -3 -4 6 -2 14 4 16 15 5 16 32 2 32 -9 0 -35 -51 -28 -54 2
-1 14 -7 28 -13 109 -49 120 -51 120 -31 0 6 3 8 8 4 4 -4 7 -12 7 -18 0 -6
14 -18 31 -27 29 -16 29 -17 13 -35 -14 -14 -22 -15 -36 -7 -17 10 -17 10 0
11 22 0 17 24 -5 28 -10 2 -17 -6 -20 -23 -4 -21 -1 -28 18 -35 33 -13 30 -17
-6 -12 -19 3 -30 0 -30 -7 0 -7 5 -9 10 -6 6 3 17 -1 26 -10 13 -12 13 -19 4
-30 -6 -8 -9 -18 -6 -23 3 -6 -1 -15 -10 -22 -11 -10 -12 -15 -3 -20 8 -6 8
-13 0 -28 -20 -38 -16 -44 55 -66 19 -6 23 -2 29 31 4 21 9 111 12 201 4 138
2 164 -11 178 -14 14 -14 17 -1 30 8 9 15 26 15 40 0 33 -9 30 -16 -6z"/>
<path d="M4531 1679 c-25 -5 -48 -12 -53 -17 -15 -15 55 -105 99 -126 27 -13
47 -32 55 -51 14 -32 18 -136 6 -128 -12 7 -13 -121 -2 -159 3 -11 15 -18 29
-18 18 0 22 4 18 20 -3 11 -1 20 5 20 15 0 33 -26 24 -35 -4 -4 3 -2 16 4 13
7 34 13 47 14 13 1 37 15 54 30 29 25 30 29 16 43 -22 22 -19 54 5 54 11 0 20
7 20 16 0 8 -4 12 -10 9 -5 -3 -7 0 -4 8 3 8 -1 19 -9 26 -10 8 -13 25 -10 54
4 32 0 48 -15 67 -17 20 -23 23 -33 13 -7 -7 -23 -13 -36 -13 -18 0 -22 5 -21
24 1 15 7 22 15 19 7 -3 13 0 13 6 0 6 -6 11 -12 11 -9 0 -8 4 2 11 11 8 12
12 2 16 -7 2 -19 11 -27 19 -8 8 -17 15 -20 14 -20 -1 -25 1 -21 9 4 5 -12 12
-34 16 -25 4 -40 12 -40 21 0 15 -14 16 -79 3z"/>
<path d="M1526 1661 c-4 -5 -1 -13 5 -17 18 -10 -12 -24 -39 -17 -32 8 -53
-14 -50 -51 1 -25 6 -32 21 -32 11 1 22 -5 24 -12 3 -8 -1 -10 -14 -5 -10 3
-15 3 -11 -2 4 -4 18 -8 30 -9 14 -1 24 -8 26 -20 3 -14 0 -17 -13 -12 -10 3
-27 4 -37 0 -19 -6 -18 -9 13 -40 26 -27 36 -31 51 -23 10 5 18 7 18 3 0 -3 7
-1 15 6 12 10 18 10 30 0 8 -7 22 -10 30 -6 9 3 16 -1 17 -12 1 -9 2 -24 4
-32 1 -8 2 -21 3 -29 1 -8 8 -11 21 -8 16 4 21 -1 25 -27 8 -37 61 -100 80
-92 8 3 24 -11 39 -33 27 -38 102 -89 114 -76 3 3 0 10 -8 16 -13 8 -13 10 0
19 8 5 10 10 4 10 -12 0 -28 30 -20 37 3 3 11 1 18 -3 21 -14 36 -13 42 2 3 8
13 11 23 8 14 -5 14 -2 -4 14 -15 13 -20 26 -16 41 4 15 1 21 -10 21 -10 0
-13 6 -10 19 3 10 0 22 -6 25 -6 4 -11 17 -11 30 0 12 -6 28 -12 36 -7 7 2 3
20 -9 18 -13 39 -24 47 -25 8 -1 18 -5 21 -9 14 -14 26 -7 14 8 -7 8 -19 14
-26 13 -7 -2 -12 1 -11 5 1 5 -15 16 -36 26 -21 10 -46 30 -55 46 -11 18 -27
29 -45 31 -15 1 -25 -2 -22 -7 8 -11 -2 -11 -42 0 -21 6 -35 5 -42 -2 -8 -8
-14 -7 -23 2 -10 11 -10 14 0 18 19 7 14 19 -8 19 -11 0 -20 -4 -20 -8 0 -4
-11 -3 -25 4 -13 6 -22 14 -19 19 2 4 -4 12 -13 18 -17 10 -17 10 0 11 40 0 4
56 -51 79 -17 7 -30 18 -29 23 3 14 -20 22 -27 9z"/>
<path d="M5325 1488 c-14 -21 -14 -24 2 -35 22 -17 33 -16 33 0 0 12 11 12 63
2 60 -11 127 -41 127 -56 0 -4 7 -9 15 -13 11 -4 21 5 32 29 9 19 21 35 27 36
6 0 -16 9 -49 20 -34 11 -74 18 -93 15 -18 -3 -54 2 -80 9 -60 19 -58 19 -77
-7z"/>
<path d="M5175 1336 c1 -40 5 -78 9 -84 7 -13 -15 -92 -26 -92 -13 0 -9 -45 6
-66 14 -19 15 -19 46 4 19 15 38 21 50 17 16 -5 20 -2 21 17 0 13 3 32 6 43 3
11 5 37 4 58 0 26 4 37 14 37 9 0 15 10 15 24 0 13 3 31 6 40 5 12 -1 16 -23
16 -44 0 -92 19 -104 41 -19 36 -27 19 -24 -55z"/>
<path d="M1556 1366 c22 -19 40 -39 40 -45 1 -6 2 -15 3 -21 0 -5 8 -10 16
-10 8 0 19 -9 25 -20 6 -11 16 -20 23 -20 7 -1 28 -22 47 -47 38 -51 55 -68
148 -154 33 -31 63 -55 65 -52 5 4 98 -56 108 -70 3 -5 9 -8 13 -7 4 1 21 -10
38 -25 l30 -27 23 22 c19 18 23 19 28 6 4 -9 1 -16 -5 -16 -7 0 -7 -4 1 -14
10 -11 8 -16 -7 -20 -20 -7 -20 -7 -1 -46 21 -43 25 -44 100 -20 22 7 33 1 79
-40 50 -44 70 -53 70 -30 0 5 -7 15 -15 23 -13 13 -13 16 2 21 12 5 14 16 10
47 -9 69 -64 113 -165 130 -31 6 -70 12 -87 15 -16 3 -45 14 -63 25 -50 29
-133 103 -128 114 2 6 -6 11 -18 11 -40 3 -54 10 -107 51 -57 44 -127 116
-155 158 -9 14 -25 25 -35 25 -11 0 -19 6 -19 13 0 22 -38 50 -71 54 l-31 3
38 -34z"/>
<path d="M6050 1322 c-19 -1 -44 -7 -55 -12 -11 -5 -56 -14 -100 -19 -44 -6
-109 -15 -145 -21 -75 -13 -102 -16 -150 -18 l-35 -2 0 -64 c-1 -46 -6 -70
-18 -83 -15 -18 -15 -19 6 -18 12 0 38 13 58 28 l37 28 73 -34 c126 -58 135
-60 294 -76 44 -5 87 -11 96 -15 11 -5 32 12 73 58 54 62 55 65 34 72 -23 7
-98 82 -98 97 0 5 -4 5 -10 2 -6 -4 -10 6 -11 22 -1 47 -11 58 -49 55z"/>
<path d="M2146 1228 c4 -13 1 -15 -18 -11 -19 5 -21 3 -10 -8 14 -16 16 -43 2
-34 -5 3 -10 1 -10 -5 0 -6 10 -8 24 -4 17 4 30 0 44 -14 11 -11 22 -18 24
-16 3 2 4 -6 4 -19 -1 -19 4 -22 34 -20 l35 3 -30 -14 c-28 -12 -62 -62 -51
-73 7 -8 27 8 21 17 -3 4 7 15 21 25 25 16 27 16 41 -4 19 -28 43 -27 43 2 0
12 4 28 9 36 7 11 0 28 -22 58 -17 24 -33 40 -36 35 -12 -17 -40 -20 -51 -6
-7 8 -17 14 -22 14 -5 0 -20 12 -34 28 -13 15 -21 19 -18 10z"/>
<path d="M2385 670 c3 -5 2 -10 -4 -10 -6 0 -8 -6 -5 -14 9 -23 -14 -28 -34
-8 -22 22 -102 35 -150 26 -25 -5 -32 -12 -32 -30 0 -12 7 -29 15 -38 8 -8 15
-19 15 -24 0 -5 17 -12 38 -15 20 -3 45 -8 56 -13 16 -6 17 -5 6 16 -11 20
-10 22 4 17 23 -9 20 1 -10 26 l-25 22 43 -1 c56 -1 87 -22 117 -79 20 -39 22
-49 12 -71 -11 -25 -12 -26 -37 -9 -25 16 -27 16 -45 -2 -19 -18 -19 -19 3
-20 57 -4 88 -15 88 -30 0 -11 4 -13 13 -6 6 6 21 13 32 16 14 5 11 0 -10 -18
l-30 -25 27 0 c15 0 30 5 33 10 10 17 44 11 57 -10 16 -25 33 -26 23 -2 -3 9
9 3 28 -16 24 -23 33 -40 30 -53 -4 -16 -1 -19 18 -16 28 5 36 23 12 29 -10 3
-27 22 -38 44 -17 33 -73 99 -197 231 -11 13 -25 20 -29 17 -5 -3 -9 1 -9 10
0 8 5 16 12 18 17 6 2 38 -17 38 -9 0 -13 -4 -10 -10z"/>
<path d="M4248 603 c-10 -2 -20 -18 -24 -39 -3 -18 -11 -31 -16 -28 -5 3 -7
17 -4 30 4 13 3 24 -2 24 -13 0 -42 -39 -42 -58 -1 -9 -7 -28 -15 -42 -15 -26
-21 -66 -7 -43 6 9 13 7 26 -9 15 -17 20 -18 28 -7 7 11 8 9 6 -6 -6 -50 47
-85 130 -85 35 0 78 30 54 38 -6 2 -12 9 -12 15 -1 7 -15 21 -32 32 -17 11
-34 27 -36 35 -2 8 8 3 22 -12 25 -26 38 -33 59 -29 5 1 6 -3 3 -8 -3 -5 1
-12 10 -15 22 -8 26 -8 19 4 -4 6 10 10 34 10 23 0 41 3 41 6 0 11 -41 64 -50
64 -4 0 -10 -9 -13 -20 -4 -16 -14 -20 -47 -20 -42 0 -42 1 -37 29 6 26 3 30
-21 36 -16 3 -28 13 -29 23 -4 39 -16 82 -22 81 -3 -1 -14 -3 -23 -6z"/>
<path d="M541 307 c-13 -6 -25 -20 -27 -30 -1 -10 -8 -25 -15 -33 -11 -14 -14
-12 -26 10 -8 14 -18 26 -23 26 -16 0 -21 -19 -10 -41 7 -11 9 -23 7 -26 -9
-9 -47 17 -47 32 0 8 -4 15 -10 15 -5 0 -10 -9 -10 -20 0 -11 -1 -23 -2 -27
-2 -3 8 -8 21 -10 35 -5 39 -13 8 -13 -14 0 -29 -4 -32 -10 -3 -5 -1 -10 4
-10 6 0 11 -7 11 -15 0 -7 8 -19 18 -24 15 -9 15 -10 -4 -11 -26 0 -37 -22
-24 -52 5 -13 9 -17 9 -10 1 7 8 12 17 10 10 -2 19 3 22 11 3 10 -1 12 -17 8
-13 -3 -21 0 -21 8 0 14 35 10 56 -7 8 -5 14 -3 18 7 3 9 2 14 -3 11 -10 -7
-24 22 -16 34 6 10 -24 22 -38 14 -7 -3 -4 1 6 9 12 10 32 14 53 11 32 -4 34
-3 25 15 -13 24 23 75 37 53 5 -7 13 -12 18 -11 22 4 27 -2 11 -13 -18 -14
-14 -58 5 -58 6 0 7 11 4 25 -4 15 -2 25 4 25 6 0 8 -4 5 -10 -3 -5 -2 -10 3
-10 14 0 25 34 13 38 -6 2 -9 8 -5 13 3 5 1 9 -5 9 -5 0 -11 16 -13 35 -3 33
-4 34 -27 22z"/>
</g>
</svg>
